  0
SECTION
  2
HEADER
  9
$ACADVER
  1
AC1024
  9
$ACADMAINTVER
 70
     6
  9
$DWGCODEPAGE
  3
ANSI_1251
  9
$INSBASE
 10
0.0
 20
0.0
 30
0.0
  9
$EXTMIN
 10
1.000000000000000E+20
 20
1.000000000000000E+20
 30
1.000000000000000E+20
  9
$EXTMAX
 10
-1.000000000000000E+20
 20
-1.000000000000000E+20
 30
-1.000000000000000E+20
  9
$LIMMIN
 10
0.0
 20
0.0
  9
$LIMMAX
 10
12.0
 20
9.0
  9
$ORTHOMODE
 70
     0
  9
$REGENMODE
 70
     1
  9
$FILLMODE
 70
     1
  9
$QTEXTMODE
 70
     0
  9
$MIRRTEXT
 70
     1
  9
$LTSCALE
 40
1.0
  9
$ATTMODE
 70
     1
  9
$TEXTSIZE
 40
0.2
  9
$TRACEWID
 40
0.05
  9
$TEXTSTYLE
  7
Standard
  9
$CLAYER
  8
0
  9
$CELTYPE
  6
ByLayer
  9
$CECOLOR
 62
   256
  9
$CELTSCALE
 40
1.0
  9
$DISPSILH
 70
     0
  9
$DIMSCALE
 40
1.0
  9
$DIMASZ
 40
0.18
  9
$DIMEXO
 40
0.0625
  9
$DIMDLI
 40
0.38
  9
$DIMRND
 40
0.0
  9
$DIMDLE
 40
0.0
  9
$DIMEXE
 40
0.18
  9
$DIMTP
 40
0.0
  9
$DIMTM
 40
0.0
  9
$DIMTXT
 40
0.18
  9
$DIMCEN
 40
0.09
  9
$DIMTSZ
 40
0.0
  9
$DIMTOL
 70
     0
  9
$DIMLIM
 70
     0
  9
$DIMTIH
 70
     1
  9
$DIMTOH
 70
     1
  9
$DIMSE1
 70
     0
  9
$DIMSE2
 70
     0
  9
$DIMTAD
 70
     0
  9
$DIMZIN
 70
     0
  9
$DIMBLK
  1

  9
$DIMASO
 70
     1
  9
$DIMSHO
 70
     1
  9
$DIMPOST
  1

  9
$DIMAPOST
  1

  9
$DIMALT
 70
     0
  9
$DIMALTD
 70
     2
  9
$DIMALTF
 40
25.4
  9
$DIMLFAC
 40
1.0
  9
$DIMTOFL
 70
     0
  9
$DIMTVP
 40
0.0
  9
$DIMTIX
 70
     0
  9
$DIMSOXD
 70
     0
  9
$DIMSAH
 70
     0
  9
$DIMBLK1
  1

  9
$DIMBLK2
  1

  9
$DIMSTYLE
  2
Standard
  9
$DIMCLRD
 70
     0
  9
$DIMCLRE
 70
     0
  9
$DIMCLRT
 70
     0
  9
$DIMTFAC
 40
1.0
  9
$DIMGAP
 40
0.09
  9
$DIMJUST
 70
     0
  9
$DIMSD1
 70
     0
  9
$DIMSD2
 70
     0
  9
$DIMTOLJ
 70
     1
  9
$DIMTZIN
 70
     0
  9
$DIMALTZ
 70
     0
  9
$DIMALTTZ
 70
     0
  9
$DIMUPT
 70
     0
  9
$DIMDEC
 70
     4
  9
$DIMTDEC
 70
     4
  9
$DIMALTU
 70
     2
  9
$DIMALTTD
 70
     2
  9
$DIMTXSTY
  7
Standard
  9
$DIMAUNIT
 70
     0
  9
$DIMADEC
 70
     0
  9
$DIMALTRND
 40
0.0
  9
$DIMAZIN
 70
     0
  9
$DIMDSEP
 70
    46
  9
$DIMATFIT
 70
     3
  9
$DIMFRAC
 70
     0
  9
$DIMLDRBLK
  1

  9
$DIMLUNIT
 70
     2
  9
$DIMLWD
 70
    -2
  9
$DIMLWE
 70
    -2
  9
$DIMTMOVE
 70
     0
  9
$DIMFXL
 40
1.0
  9
$DIMFXLON
 70
     0
  9
$DIMJOGANG
 40
0.7853981633974483
  9
$DIMTFILL
 70
     0
  9
$DIMTFILLCLR
 70
     0
  9
$DIMARCSYM
 70
     0
  9
$DIMLTYPE
  6

  9
$DIMLTEX1
  6

  9
$DIMLTEX2
  6

  9
$DIMTXTDIRECTION
 70
     0
  9
$LUNITS
 70
     2
  9
$LUPREC
 70
     4
  9
$SKETCHINC
 40
0.1
  9
$FILLETRAD
 40
0.5
  9
$AUNITS
 70
     0
  9
$AUPREC
 70
     0
  9
$MENU
  1
.
  9
$ELEVATION
 40
0.0
  9
$PELEVATION
 40
0.0
  9
$THICKNESS
 40
0.0
  9
$LIMCHECK
 70
     0
  9
$CHAMFERA
 40
0.5
  9
$CHAMFERB
 40
0.5
  9
$CHAMFERC
 40
1.0
  9
$CHAMFERD
 40
0.0
  9
$SKPOLY
 70
     0
  9
$TDCREATE
 40
2458947.495349213
  9
$TDUCREATE
 40
2458947.370349213
  9
$TDUPDATE
 40
2458947.495349236
  9
$TDUUPDATE
 40
2458947.370349236
  9
$TDINDWG
 40
0.0000000116
  9
$TDUSRTIMER
 40
0.0000000116
  9
$USRTIMER
 70
     1
  9
$ANGBASE
 50
0.0
  9
$ANGDIR
 70
     0
  9
$PDMODE
 70
     0
  9
$PDSIZE
 40
0.0
  9
$PLINEWID
 40
0.0
  9
$SPLFRAME
 70
     0
  9
$SPLINETYPE
 70
     6
  9
$SPLINESEGS
 70
     8
  9
$HANDSEED
  5
5C
  9
$SURFTAB1
 70
     6
  9
$SURFTAB2
 70
     6
  9
$SURFTYPE
 70
     6
  9
$SURFU
 70
     6
  9
$SURFV
 70
     6
  9
$UCSBASE
  2

  9
$UCSNAME
  2

  9
$UCSORG
 10
0.0
 20
0.0
 30
0.0
  9
$UCSXDIR
 10
1.0
 20
0.0
 30
0.0
  9
$UCSYDIR
 10
0.0
 20
1.0
 30
0.0
  9
$UCSORTHOREF
  2

  9
$UCSORTHOVIEW
 70
     0
  9
$UCSORGTOP
 10
0.0
 20
0.0
 30
0.0
  9
$UCSORGBOTTOM
 10
0.0
 20
0.0
 30
0.0
  9
$UCSORGLEFT
 10
0.0
 20
0.0
 30
0.0
  9
$UCSORGRIGHT
 10
0.0
 20
0.0
 30
0.0
  9
$UCSORGFRONT
 10
0.0
 20
0.0
 30
0.0
  9
$UCSORGBACK
 10
0.0
 20
0.0
 30
0.0
  9
$PUCSBASE
  2

  9
$PUCSNAME
  2

  9
$PUCSORG
 10
0.0
 20
0.0
 30
0.0
  9
$PUCSXDIR
 10
1.0
 20
0.0
 30
0.0
  9
$PUCSYDIR
 10
0.0
 20
1.0
 30
0.0
  9
$PUCSORTHOREF
  2

  9
$PUCSORTHOVIEW
 70
     0
  9
$PUCSORGTOP
 10
0.0
 20
0.0
 30
0.0
  9
$PUCSORGBOTTOM
 10
0.0
 20
0.0
 30
0.0
  9
$PUCSORGLEFT
 10
0.0
 20
0.0
 30
0.0
  9
$PUCSORGRIGHT
 10
0.0
 20
0.0
 30
0.0
  9
$PUCSORGFRONT
 10
0.0
 20
0.0
 30
0.0
  9
$PUCSORGBACK
 10
0.0
 20
0.0
 30
0.0
  9
$USERI1
 70
     0
  9
$USERI2
 70
     0
  9
$USERI3
 70
     0
  9
$USERI4
 70
     0
  9
$USERI5
 70
     0
  9
$USERR1
 40
0.0
  9
$USERR2
 40
0.0
  9
$USERR3
 40
0.0
  9
$USERR4
 40
0.0
  9
$USERR5
 40
0.0
  9
$WORLDVIEW
 70
     1
  9
$SHADEDGE
 70
     3
  9
$SHADEDIF
 70
    70
  9
$TILEMODE
 70
     1
  9
$MAXACTVP
 70
    64
  9
$PINSBASE
 10
0.0
 20
0.0
 30
0.0
  9
$PLIMCHECK
 70
     0
  9
$PEXTMIN
 10
1.000000000000000E+20
 20
1.000000000000000E+20
 30
1.000000000000000E+20
  9
$PEXTMAX
 10
-1.000000000000000E+20
 20
-1.000000000000000E+20
 30
-1.000000000000000E+20
  9
$PLIMMIN
 10
0.0
 20
0.0
  9
$PLIMMAX
 10
12.0
 20
9.0
  9
$UNITMODE
 70
     0
  9
$VISRETAIN
 70
     1
  9
$PLINEGEN
 70
     0
  9
$PSLTSCALE
 70
     1
  9
$TREEDEPTH
 70
  3020
  9
$CMLSTYLE
  2
Standard
  9
$CMLJUST
 70
     0
  9
$CMLSCALE
 40
1.0
  9
$PROXYGRAPHICS
 70
     1
  9
$MEASUREMENT
 70
     0
  9
$CELWEIGHT
370
    -1
  9
$ENDCAPS
280
     0
  9
$JOINSTYLE
280
     0
  9
$LWDISPLAY
290
     1
  9
$INSUNITS
 70
     1
  9
$HYPERLINKBASE
  1

  9
$STYLESHEET
  1

  9
$XEDIT
290
     1
  9
$CEPSNTYPE
380
     0
  9
$PSTYLEMODE
290
     1
  9
$FINGERPRINTGUID
  2
{70931AE3-B090-469F-AE7B-9D128E7200AB}
  9
$VERSIONGUID
  2
{FAEB1C32-E019-11D5-929B-00C0DF256EC4}
  9
$EXTNAMES
290
     1
  9
$PSVPSCALE
 40
0.0
  9
$OLESTARTUP
290
     0
  9
$SORTENTS
280
   127
  9
$INDEXCTL
280
     0
  9
$HIDETEXT
280
     1
  9
$XCLIPFRAME
280
     2
  9
$HALOGAP
280
     0
  9
$OBSCOLOR
 70
   257
  9
$OBSLTYPE
280
     0
  9
$INTERSECTIONDISPLAY
280
     0
  9
$INTERSECTIONCOLOR
 70
   257
  9
$DIMASSOC
280
     2
  9
$PROJECTNAME
  1

  9
$CAMERADISPLAY
290
     0
  9
$LENSLENGTH
 40
50.0
  9
$CAMERAHEIGHT
 40
0.0
  9
$STEPSPERSEC
 40
2.0
  9
$STEPSIZE
 40
6.0
  9
$3DDWFPREC
 40
2.0
  9
$PSOLWIDTH
 40
0.25
  9
$PSOLHEIGHT
 40
4.0
  9
$LOFTANG1
 40
1.570796326794897
  9
$LOFTANG2
 40
1.570796326794897
  9
$LOFTMAG1
 40
0.0
  9
$LOFTMAG2
 40
0.0
  9
$LOFTPARAM
 70
     7
  9
$LOFTNORMALS
280
     1
  9
$LATITUDE
 40
37.795
  9
$LONGITUDE
 40
-122.394
  9
$NORTHDIRECTION
 40
0.0
  9
$TIMEZONE
 70
 -8000
  9
$LIGHTGLYPHDISPLAY
280
     1
  9
$TILEMODELIGHTSYNCH
280
     1
  9
$CMATERIAL
347
3C
  9
$SOLIDHIST
280
     1
  9
$SHOWHIST
280
     1
  9
$DWFFRAME
280
     2
  9
$DGNFRAME
280
     2
  9
$REALWORLDSCALE
290
     1
  9
$INTERFERECOLOR
 62
   256
  9
$CSHADOW
280
     0
  9
$SHADOWPLANELOCATION
 40
0.0
  0
ENDSEC
  0
SECTION
  2
CLASSES
  0
CLASS
  1
ACDBDICTIONARYWDFLT
  2
AcDbDictionaryWithDefault
  3
ObjectDBX Classes
 90
        0
 91
        4
280
     0
281
     0
  0
CLASS
  1
VISUALSTYLE
  2
AcDbVisualStyle
  3
ObjectDBX Classes
 90
     4095
 91
        4
280
     0
281
     0
  0
CLASS
  1
MATERIAL
  2
AcDbMaterial
  3
ObjectDBX Classes
 90
     1153
 91
        4
280
     0
281
     0
  0
CLASS
  1
SUN
  2
AcDbSun
  3
SCENEOE
 90
     1024
 91
        4
280
     0
281
     0
  0
ENDSEC
  0
SECTION
  2
TABLES
  0
TABLE
  2
VPORT
  5
8
330
0
100
AcDbSymbolTable
 70
     1
  0
VPORT
  5
29
330
8
100
AcDbSymbolTableRecord
100
AcDbViewportTableRecord
  2
*Active
 70
     0
 10
0.0
 20
0.0
 11
1.0
 21
1.0
 12
0.0
 22
0.0
 13
0.0
 23
0.0
 14
0.5
 24
0.5
 15
0.5
 25
0.5
 16
0.0
 26
0.0
 36
1.0
 17
375.0
 27
-375.0
 37
0.0
 40
750.0
 41
1.0
 42
50.0
 43
0.0
 44
0.0
 50
0.0
 51
0.0
 71
     0
 72
   100
 73
     1
 74
     3
 75
     0
 76
     0
 77
     0
 78
     0
281
     0
 65
     1
110
0.0
120
0.0
130
0.0
111
1.0
121
0.0
131
0.0
112
0.0
122
1.0
132
0.0
 79
     0
146
0.0
 60
     3
 61
     5
292
     1
282
     1
141
0.0
142
0.0
 63
   250
361
3F
  0
ENDTAB
  0
TABLE
  2
LTYPE
  5
5
330
0
100
AcDbSymbolTable
 70
     1
  0
LTYPE
  5
14
330
5
100
AcDbSymbolTableRecord
100
AcDbLinetypeTableRecord
  2
ByBlock
 70
     0
  3

 72
    65
 73
     0
 40
0.0
  0
LTYPE
  5
15
330
5
100
AcDbSymbolTableRecord
100
AcDbLinetypeTableRecord
  2
ByLayer
 70
     0
  3

 72
    65
 73
     0
 40
0.0
  0
LTYPE
  5
16
330
5
100
AcDbSymbolTableRecord
100
AcDbLinetypeTableRecord
  2
Continuous
 70
     0
  3
Solid line
 72
    65
 73
     0
 40
0.0
  0
ENDTAB
  0
TABLE
  2
LAYER
  5
2
330
0
100
AcDbSymbolTable
 70
     2
  0
LAYER
  5
10
330
2
100
AcDbSymbolTableRecord
100
AcDbLayerTableRecord
  2
0
 70
     0
 62
     7
  6
Continuous
370
    -3
390
F
347
3E
  0
LAYER
  5
40
330
2
100
AcDbSymbolTableRecord
100
AcDbLayerTableRecord
  2
Layer 1
 70
     0
 62
     7
  6
Continuous
370
    -3
390
F
347
3E
  0
ENDTAB
  0
TABLE
  2
STYLE
  5
3
330
0
100
AcDbSymbolTable
 70
     1
  0
STYLE
  5
11
330
3
100
AcDbSymbolTableRecord
100
AcDbTextStyleTableRecord
  2
Standard
 70
     0
 40
0.0
 41
1.0
 50
0.0
 71
     0
 42
0.2
  3
txt
  4

  0
ENDTAB
  0
TABLE
  2
VIEW
  5
6
330
0
100
AcDbSymbolTable
 70
     0
  0
ENDTAB
  0
TABLE
  2
UCS
  5
7
330
0
100
AcDbSymbolTable
 70
     0
  0
ENDTAB
  0
TABLE
  2
APPID
  5
9
330
0
100
AcDbSymbolTable
 70
     1
  0
APPID
  5
12
330
9
100
AcDbSymbolTableRecord
100
AcDbRegAppTableRecord
  2
ACAD
 70
     0
  0
ENDTAB
  0
TABLE
  2
DIMSTYLE
  5
A
330
0
100
AcDbSymbolTable
 70
     1
100
AcDbDimStyleTable
  0
DIMSTYLE
105
27
330
A
100
AcDbSymbolTableRecord
100
AcDbDimStyleTableRecord
  2
Standard
 70
     0
178
     0
340
11
  0
ENDTAB
  0
TABLE
  2
BLOCK_RECORD
  5
1
330
0
100
AcDbSymbolTable
 70
     3
  0
BLOCK_RECORD
  5
1F
330
1
100
AcDbSymbolTableRecord
100
AcDbBlockTableRecord
  2
*Model_Space
340
22
 70
     0
280
     1
281
     0
  0
BLOCK_RECORD
  5
1B
330
1
100
AcDbSymbolTableRecord
100
AcDbBlockTableRecord
  2
*Paper_Space
340
1E
 70
     0
280
     1
281
     0
  0
BLOCK_RECORD
  5
23
330
1
100
AcDbSymbolTableRecord
100
AcDbBlockTableRecord
  2
*Paper_Space0
340
26
 70
     0
280
     1
281
     0
  0
BLOCK_RECORD
  5
45
330
1
100
AcDbSymbolTableRecord
100
AcDbBlockTableRecord
  2
block 2
340
0
102
{BLKREFS
331
46
102
}
 70
     0
280
     1
281
     0
  0
BLOCK_RECORD
  5
4C
330
1
100
AcDbSymbolTableRecord
100
AcDbBlockTableRecord
  2
block 3
340
0
102
{BLKREFS
331
4D
102
}
 70
     0
280
     1
281
     0
  0
ENDTAB
  0
ENDSEC
  0
SECTION
  2
BLOCKS
  0
BLOCK
  5
20
330
1F
100
AcDbEntity
  8
0
100
AcDbBlockBegin
  2
*Model_Space
 70
     0
 10
0.0
 20
0.0
 30
0.0
  3
*Model_Space
  1

  0
ENDBLK
  5
21
330
1F
100
AcDbEntity
  8
0
100
AcDbBlockEnd
  0
BLOCK
  5
1C
330
1B
100
AcDbEntity
 67
     1
  8
0
100
AcDbBlockBegin
  2
*Paper_Space
 70
     0
 10
0.0
 20
0.0
 30
0.0
  3
*Paper_Space
  1

  0
ENDBLK
  5
1D
330
1B
100
AcDbEntity
 67
     1
  8
0
100
AcDbBlockEnd
  0
BLOCK
  5
24
330
23
100
AcDbEntity
  8
0
100
AcDbBlockBegin
  2
*Paper_Space0
 70
     0
 10
0.0
 20
0.0
 30
0.0
  3
*Paper_Space0
  1

  0
ENDBLK
  5
25
330
23
100
AcDbEntity
  8
0
100
AcDbBlockEnd
  0
BLOCK
  5
47
330
45
100
AcDbEntity
  8
0
100
AcDbBlockBegin
  2
block 2
 70
     0
 10
0.0
 20
0.0
 30
0.0
  3
block 2
  1

  0
SPLINE
  5
49
330
45
100
AcDbEntity
  8
Layer 1
370
     0
100
AcDbSpline
210
0.0
220
0.0
230
1.0
 70
    11
 71
     3
 72
    86
 73
    82
 74
     0
 42
0.0000000001
 43
0.0000000001
 12
1.0
 22
0.0
 32
0.0
 13
1.0
 23
0.0
 33
0.0
 40
0.0
 40
0.0
 40
0.0
 40
0.0
 40
1.0
 40
1.0
 40
1.0
 40
2.0
 40
2.0
 40
2.0
 40
3.0
 40
3.0
 40
3.0
 40
4.0
 40
4.0
 40
4.0
 40
5.0
 40
5.0
 40
5.0
 40
6.0
 40
6.0
 40
6.0
 40
7.0
 40
7.0
 40
7.0
 40
8.0
 40
8.0
 40
8.0
 40
9.0
 40
9.0
 40
9.0
 40
10.0
 40
10.0
 40
10.0
 40
11.0
 40
11.0
 40
11.0
 40
12.0
 40
12.0
 40
12.0
 40
13.0
 40
13.0
 40
13.0
 40
14.0
 40
14.0
 40
14.0
 40
15.0
 40
15.0
 40
15.0
 40
16.0
 40
16.0
 40
16.0
 40
17.0
 40
17.0
 40
17.0
 40
18.0
 40
18.0
 40
18.0
 40
19.0
 40
19.0
 40
19.0
 40
20.0
 40
20.0
 40
20.0
 40
21.0
 40
21.0
 40
21.0
 40
22.0
 40
22.0
 40
22.0
 40
23.0
 40
23.0
 40
23.0
 40
24.0
 40
24.0
 40
24.0
 40
25.0
 40
25.0
 40
25.0
 40
26.0
 40
26.0
 40
26.0
 40
27.0
 40
27.0
 40
27.0
 40
27.0
 10
378.4292904400718
 20
-397.9406999999992
 30
0.0
 10
365.9383907556185
 20
-401.6671000000006
 30
0.0
 10
354.1611910531356
 20
-407.7176999999992
 30
0.0
 10
343.437491324039
 20
-415.7286999999997
 30
0.0
 10
326.4223917538766
 20
-428.4390000000003
 30
0.0
 10
311.7164921253789
 20
-444.3593999999994
 30
0.0
 10
292.8540926018832
 20
-454.5043999999998
 30
0.0
 10
275.271493046057
 20
-463.9613000000008
 30
0.0
 10
253.4447935974458
 20
-467.7011000000002
 30
0.0
 10
235.3532940544756
 20
-457.4274999999998
 30
0.0
 10
226.9000942680213
 20
-452.6273000000001
 30
0.0
 10
219.9692944431081
 20
-445.5403999999999
 30
0.0
 10
213.8490000000002
 20
-438.0854999999992
 30
0.0
 10
207.370794761373
 20
-430.1944999999996
 30
0.0
 10
201.4372949112658
 20
-421.8374999999996
 30
0.0
 10
196.0635950470169
 20
-413.1584999999995
 30
0.0
 10
185.055095325115
 20
-395.3785000000007
 30
0.0
 10
176.4725955419271
 20
-376.1371999999992
 30
0.0
 10
170.4719999999998
 20
-356.1098000000002
 30
0.0
 10
170.4087956951116
 20
-355.8991999999998
 30
0.0
 10
170.3810000000003
 20
-355.6998999999996
 30
0.0
 10
170.3707956960716
 20
-355.5075999999999
 30
0.0
 10
170.2443956992647
 20
-355.1346000000003
 30
0.0
 10
170.1128957025867
 20
-354.7650999999996
 30
0.0
 10
169.9990957054615
 20
-354.3829999999998
 30
0.0
 10
162.6243958917621
 20
-329.6588000000002
 30
0.0
 10
187.4222952653145
 20
-312.1895000000004
 30
0.0
 10
205.4480948099445
 20
-301.3046000000004
 30
0.0
 10
219.5535944536095
 20
-292.7866999999997
 30
0.0
 10
235.9971940382093
 20
-285.3712999999998
 30
0.0
 10
252.2993936263811
 20
-286.6945999999998
 30
0.0
 10
252.5993936188024
 20
-286.5559000000003
 30
0.0
 10
252.950093609943
 20
-286.4767000000002
 30
0.0
 10
253.3609999999999
 20
-286.4907999999996
 30
0.0
 10
264.6508933143559
 20
-286.8792000000003
 30
0.0
 10
275.7880930330066
 20
-291.8519999999999
 30
0.0
 10
283.8230000000003
 20
-299.7744000000002
 30
0.0
 10
292.7044926056624
 20
-308.5313999999998
 30
0.0
 10
297.8632924753401
 20
-320.5573000000004
 30
0.0
 10
302.7258923525005
 20
-331.8765000000003
 30
0.0
 10
315.6984920247851
 20
-325.1824999999999
 30
0.0
 10
329.1003916862246
 20
-319.3495000000003
 30
0.0
 10
342.8772913381908
 20
-314.5811999999996
 30
0.0
 10
342.3256913521254
 20
-316.3716000000004
 30
0.0
 10
341.8452913642614
 20
-318.2155999999995
 30
0.0
 10
341.4400913744976
 20
-320.1154999999999
 30
0.0
 10
312.9572920940336
 20
-330.3424999999997
 30
0.0
 10
286.1705927707226
 20
-345.1684999999998
 30
0.0
 10
261.4280933957707
 20
-362.6099000000004
 30
0.0
 10
248.816593714364
 20
-372.6504000000004
 30
0.0
 10
233.5396941002909
 20
-379.2402999999995
 30
0.0
 10
217.2858945108965
 20
-380.5087999999996
 30
0.0
 10
204.4881948341936
 20
-381.5072999999993
 30
0.0
 10
189.9094952024825
 20
-378.2170999999998
 30
0.0
 10
180.0513954515191
 20
-369.732
 30
0.0
 10
186.2935952938278
 20
-386.4249
 30
0.0
 10
194.4157950886438
 20
-402.3813000000009
 30
0.0
 10
204.3074948387584
 20
-417.2422000000006
 30
0.0
 10
214.8011945736653
 20
-433.0072
 30
0.0
 10
228.0274942395408
 20
-452.0208000000002
 30
0.0
 10
247.2939999999999
 20
-457.3332000000009
 30
0.0
 10
267.6838932377359
 20
-462.9554000000007
 30
0.0
 10
288.2681927177327
 20
-453.3215999999993
 30
0.0
 10
304.4327923093806
 20
-441.4861999999994
 30
0.0
 10
321.0018918908099
 20
-429.3549999999996
 30
0.0
 10
335.1976915321939
 20
-414.0910000000003
 30
0.0
 10
352.9920910826695
 20
-403.6211999999996
 30
0.0
 10
363.0278908291439
 20
-397.7162000000008
 30
0.0
 10
373.9950905520891
 20
-393.5558000000001
 30
0.0
 10
385.3440902653892
 20
-391.1998999999996
 30
0.0
 10
383.1970000000001
 20
-393.3369999999995
 30
0.0
 10
380.9437903765502
 20
-395.5355999999992
 30
0.0
 10
378.5748904363936
 20
-397.8001999999997
 30
0.0
 10
378.5748904363936
 20
-397.8001999999997
 30
0.0
 10
378.5650904366412
 20
-397.8094999999994
 30
0.0
 10
378.5650904366412
 20
-397.8094999999994
 30
0.0
 10
378.5650904366412
 20
-397.8094999999994
 30
0.0
 10
378.5554904368837
 20
-397.8189000000002
 30
0.0
 10
378.5554904368837
 20
-397.8189000000002
 30
0.0
 10
378.5131904379523
 20
-397.8595999999998
 30
0.0
 10
378.4715904390032
 20
-397.8999999999996
 30
0.0
 10
378.4292904400718
 20
-397.9406999999992
 30
0.0
  0
SPLINE
  5
4A
330
45
100
AcDbEntity
  8
Layer 1
370
     0
100
AcDbSpline
210
0.0
220
0.0
230
1.0
 70
    11
 71
     3
 72
    20
 73
    16
 74
     0
 42
0.0000000001
 43
0.0000000001
 12
1.0
 22
0.0
 32
0.0
 13
1.0
 23
0.0
 33
0.0
 40
0.0
 40
0.0
 40
0.0
 40
0.0
 40
1.0
 40
1.0
 40
1.0
 40
2.0
 40
2.0
 40
2.0
 40
3.0
 40
3.0
 40
3.0
 40
4.0
 40
4.0
 40
4.0
 40
5.0
 40
5.0
 40
5.0
 40
5.0
 10
278.5618929629345
 20
-344.6066000000001
 30
0.0
 10
278.119392974113
 20
-345.2223000000004
 30
0.0
 10
277.6689999999999
 20
-345.8325000000004
 30
0.0
 10
277.2111929970561
 20
-346.4368000000004
 30
0.0
 10
284.1830928209311
 20
-342.0762999999997
 30
0.0
 10
291.2992926411607
 20
-337.9395999999997
 30
0.0
 10
298.5540000000001
 20
-334.0672999999997
 30
0.0
 10
294.6892925555221
 20
-325.0607
 30
0.0
 10
290.6712926570253
 20
-315.6516000000001
 30
0.0
 10
284.629692809649
 20
-307.8527999999997
 30
0.0
 10
285.3347927918367
 20
-309.5169999999998
 30
0.0
 10
285.8883927778515
 20
-311.2575999999999
 30
0.0
 10
286.2676927682696
 20
-313.0657000000001
 30
0.0
 10
288.5850927097272
 20
-324.1156000000001
 30
0.0
 10
284.8588928038589
 20
-335.5284000000001
 30
0.0
 10
278.5618929629345
 20
-344.6066000000001
 30
0.0
  0
SPLINE
  5
4B
330
45
100
AcDbEntity
  8
Layer 1
370
     0
100
AcDbSpline
210
0.0
220
0.0
230
1.0
 70
    11
 71
     3
 72
    35
 73
    31
 74
     0
 42
0.0000000001
 43
0.0000000001
 12
1.0
 22
0.0
 32
0.0
 13
1.0
 23
0.0
 33
0.0
 40
0.0
 40
0.0
 40
0.0
 40
0.0
 40
1.0
 40
1.0
 40
1.0
 40
2.0
 40
2.0
 40
2.0
 40
3.0
 40
3.0
 40
3.0
 40
4.0
 40
4.0
 40
4.0
 40
5.0
 40
5.0
 40
5.0
 40
6.0
 40
6.0
 40
6.0
 40
7.0
 40
7.0
 40
7.0
 40
8.0
 40
8.0
 40
8.0
 40
9.0
 40
9.0
 40
9.0
 40
10.0
 40
10.0
 40
10.0
 40
10.0
 10
177.9587955043826
 20
-360.1583000000001
 30
0.0
 10
188.6438952344542
 20
-375.9781999999996
 30
0.0
 10
210.0255946943071
 20
-378.1841999999997
 30
0.0
 10
227.1687942612334
 20
-374.2447000000002
 30
0.0
 10
236.7929999999997
 20
-372.0331999999999
 30
0.0
 10
245.8861937883921
 20
-367.8958000000002
 30
0.0
 10
253.9925935836072
 20
-362.3054000000002
 30
0.0
 10
254.1454935797447
 20
-362.0902999999998
 30
0.0
 10
254.3292935751015
 20
-361.8860000000004
 30
0.0
 10
254.5732935689375
 20
-361.7091
 30
0.0
 10
256.0889999999999
 20
-360.6107000000002
 30
0.0
 10
257.6155934920826
 20
-359.5255999999999
 30
0.0
 10
259.1472934533886
 20
-358.4466000000002
 30
0.0
 10
264.9475933068607
 20
-353.7457000000004
 30
0.0
 10
270.1247931760736
 20
-348.2704999999996
 30
0.0
 10
274.4744930661909
 20
-342.2174999999997
 30
0.0
 10
281.0220929007846
 20
-332.7779
 30
0.0
 10
285.0165927998751
 20
-320.0824000000002
 30
0.0
 10
280.0130929262741
 20
-309.0460999999996
 30
0.0
 10
275.9650930285352
 20
-300.1178
 30
0.0
 10
267.0390932540249
 20
-294.5645999999997
 30
0.0
 10
257.7797934879345
 20
-292.3072000000002
 30
0.0
 10
236.8573940164788
 20
-287.2057999999997
 30
0.0
 10
216.3401945347869
 20
-299.6530000000002
 30
0.0
 10
199.5071949600242
 20
-310.6061
 30
0.0
 10
190.556295186143
 20
-316.4300999999996
 30
0.0
 10
181.7634954082678
 20
-323.2554
 30
0.0
 10
176.8784955316733
 20
-333.0060000000003
 30
0.0
 10
172.4701956430363
 20
-341.8051999999998
 30
0.0
 10
172.3726956454993
 20
-351.8873000000003
 30
0.0
 10
177.9587955043826
 20
-360.1583000000001
 30
0.0
  0
ENDBLK
  5
48
330
45
100
AcDbEntity
  8
0
100
AcDbBlockEnd
  0
BLOCK
  5
4E
330
4C
100
AcDbEntity
  8
0
100
AcDbBlockBegin
  2
block 3
 70
     0
 10
0.0
 20
0.0
 30
0.0
  3
block 3
  1

  0
SPLINE
  5
50
330
4C
100
AcDbEntity
  8
Layer 1
370
     0
100
AcDbSpline
210
0.0
220
0.0
230
1.0
 70
    11
 71
     3
 72
   128
 73
   124
 74
     0
 42
0.0000000001
 43
0.0000000001
 12
1.0
 22
0.0
 32
0.0
 13
1.0
 23
0.0
 33
0.0
 40
0.0
 40
0.0
 40
0.0
 40
0.0
 40
1.0
 40
1.0
 40
1.0
 40
2.0
 40
2.0
 40
2.0
 40
3.0
 40
3.0
 40
3.0
 40
4.0
 40
4.0
 40
4.0
 40
5.0
 40
5.0
 40
5.0
 40
6.0
 40
6.0
 40
6.0
 40
7.0
 40
7.0
 40
7.0
 40
8.0
 40
8.0
 40
8.0
 40
9.0
 40
9.0
 40
9.0
 40
10.0
 40
10.0
 40
10.0
 40
11.0
 40
11.0
 40
11.0
 40
12.0
 40
12.0
 40
12.0
 40
13.0
 40
13.0
 40
13.0
 40
14.0
 40
14.0
 40
14.0
 40
15.0
 40
15.0
 40
15.0
 40
16.0
 40
16.0
 40
16.0
 40
17.0
 40
17.0
 40
17.0
 40
18.0
 40
18.0
 40
18.0
 40
19.0
 40
19.0
 40
19.0
 40
20.0
 40
20.0
 40
20.0
 40
21.0
 40
21.0
 40
21.0
 40
22.0
 40
22.0
 40
22.0
 40
23.0
 40
23.0
 40
23.0
 40
24.0
 40
24.0
 40
24.0
 40
25.0
 40
25.0
 40
25.0
 40
26.0
 40
26.0
 40
26.0
 40
27.0
 40
27.0
 40
27.0
 40
28.0
 40
28.0
 40
28.0
 40
29.0
 40
29.0
 40
29.0
 40
30.0
 40
30.0
 40
30.0
 40
31.0
 40
31.0
 40
31.0
 40
32.0
 40
32.0
 40
32.0
 40
33.0
 40
33.0
 40
33.0
 40
34.0
 40
34.0
 40
34.0
 40
35.0
 40
35.0
 40
35.0
 40
36.0
 40
36.0
 40
36.0
 40
37.0
 40
37.0
 40
37.0
 40
38.0
 40
38.0
 40
38.0
 40
39.0
 40
39.0
 40
39.0
 40
40.0
 40
40.0
 40
40.0
 40
41.0
 40
41.0
 40
41.0
 40
41.0
 10
725.543381671232
 20
-403.5794000000005
 30
0.0
 10
722.5330817472786
 20
-419.0162999999993
 30
0.0
 10
713.7871819682186
 20
-431.5977999999996
 30
0.0
 10
701.551182277326
 20
-438.0984000000008
 30
0.0
 10
689.9418825706016
 20
-444.2666000000008
 30
0.0
 10
675.6195829324133
 20
-444.8127000000004
 30
0.0
 10
659.7566833331439
 20
-439.8104999999996
 30
0.0
 10
638.9277838593262
 20
-461.1293999999998
 30
0.0
 10
608.9990846153887
 20
-474.9148999999998
 30
0.0
 10
568.0563856496883
 20
-457.7260000000006
 30
0.0
 10
521.6739999999991
 20
-438.2525999999998
 30
0.0
 10
507.2858871848803
 20
-409.6496000000006
 30
0.0
 10
505.6263872268028
 20
-380.9588999999996
 30
0.0
 10
495.3075874874776
 20
-376.6540999999997
 30
0.0
 10
487.0791876953444
 20
-370.9835999999996
 30
0.0
 10
481.1971878439363
 20
-364.1578
 30
0.0
 10
481.2960878414378
 20
-364.0114000000003
 30
0.0
 10
481.4011878387828
 20
-363.8639999999996
 30
0.0
 10
481.4986878363197
 20
-363.7178000000004
 30
0.0
 10
482.3813878140209
 20
-362.3919999999998
 30
0.0
 10
483.2097877930937
 20
-361.0680000000002
 30
0.0
 10
483.9840877735332
 20
-359.7464
 30
0.0
 10
489.0277876461187
 20
-366.0403999999999
 30
0.0
 10
496.263387463332
 20
-371.3460999999998
 30
0.0
 10
505.4644872308927
 20
-375.4808000000003
 30
0.0
 10
505.3864872328631
 20
-356.3994000000002
 30
0.0
 10
510.3996871062191
 20
-337.5342000000001
 30
0.0
 10
514.8321869942447
 20
-321.5528999999997
 30
0.0
 10
515.7488869710869
 20
-321.9551000000001
 30
0.0
 10
516.6650000000009
 20
-322.3613999999998
 30
0.0
 10
517.594886924453
 20
-322.7173000000003
 30
0.0
 10
537.3724864248288
 20
-330.2861000000003
 30
0.0
 10
559.9017858556908
 20
-327.5432000000001
 30
0.0
 10
576.8857854266389
 20
-323.2038000000002
 30
0.0
 10
580.0570853465251
 20
-322.393
 30
0.0
 10
583.2652852654792
 20
-321.2782999999999
 30
0.0
 10
586.3681851870933
 20
-320.1994000000004
 30
0.0
 10
591.6478850537169
 20
-318.3648000000003
 30
0.0
 10
597.1077849157882
 20
-316.4660999999996
 30
0.0
 10
602.5450847784305
 20
-316.0091000000002
 30
0.0
 10
612.1432845359595
 20
-315.1995999999999
 30
0.0
 10
621.7360000000008
 20
-321.0766000000003
 30
0.0
 10
628.1150841324779
 20
-325.5664999999999
 30
0.0
 10
636.038683932311
 20
-331.1435000000001
 30
0.0
 10
641.040083805965
 20
-338.3301000000001
 30
0.0
 10
645.3745836964663
 20
-350.3716000000004
 30
0.0
 10
651.9477835304133
 20
-368.6252000000004
 30
0.0
 10
674.5712829588956
 20
-379.1396999999997
 30
0.0
 10
693.209882488045
 20
-386.2626
 30
0.0
 10
687.6814826277041
 20
-399.8300999999992
 30
0.0
 10
678.0351828713901
 20
-419.4555999999993
 30
0.0
 10
663.5161832381709
 20
-435.7795000000006
 30
0.0
 10
677.1730000000007
 20
-439.6466
 30
0.0
 10
689.3641825851955
 20
-438.9573999999993
 30
0.0
 10
699.2247823360958
 20
-433.7194999999992
 30
0.0
 10
710.1336820605138
 20
-427.9228999999996
 30
0.0
 10
717.9514818630196
 20
-416.5920999999998
 30
0.0
 10
720.6759999999995
 20
-402.6293000000005
 30
0.0
 10
721.8536817644417
 20
-396.5885999999991
 30
0.0
 10
720.8993817885494
 20
-391.2309000000005
 30
0.0
 10
717.8362818659298
 20
-386.7083999999995
 30
0.0
 10
712.5092820005011
 20
-378.840400000001
 30
0.0
 10
702.2397822599305
 20
-375.2635
 30
0.0
 10
697.7435823735141
 20
-374.0230000000001
 30
0.0
 10
697.0386823913213
 20
-376.1543999999994
 30
0.0
 10
696.0411824165203
 20
-379.0171000000009
 30
0.0
 10
694.7323824495834
 20
-382.4200999999994
 30
0.0
 10
676.8325829017704
 20
-375.5829999999996
 30
0.0
 10
655.25
 20
-365.5969000000005
 30
0.0
 10
649.2635835982219
 20
-348.9728999999998
 30
0.0
 10
646.0267836799903
 20
-339.9809000000005
 30
0.0
 10
641.2655838002684
 20
-329.7676000000001
 30
0.0
 10
630.4944840723692
 20
-322.1863000000003
 30
0.0
 10
623.5857842468977
 20
-317.3226999999997
 30
0.0
 10
613.1370000000006
 20
-310.9677000000001
 30
0.0
 10
602.1988847871762
 20
-311.8901999999998
 30
0.0
 10
596.2415849376703
 20
-312.3918999999996
 30
0.0
 10
590.5324850818943
 20
-314.3768
 30
0.0
 10
585.0115852213639
 20
-316.2954
 30
0.0
 10
581.8511853012023
 20
-317.3936999999996
 30
0.0
 10
578.8639999999996
 20
-318.4322000000002
 30
0.0
 10
575.8632854524694
 20
-319.1994000000004
 30
0.0
 10
558.6005858885619
 20
-323.6102000000001
 30
0.0
 10
535.4282864739434
 20
-326.3361999999997
 30
0.0
 10
515.9445869661431
 20
-317.5461999999998
 30
0.0
 10
517.1122869366445
 20
-313.3366999999998
 30
0.0
 10
518.1852869095383
 20
-309.3800000000001
 30
0.0
 10
519.080786886916
 20
-305.6831000000002
 30
0.0
 10
515.0600869884875
 20
-303.6565000000001
 30
0.0
 10
504.7664872485257
 20
-299.2331000000004
 30
0.0
 10
495.3806874856309
 20
-301.5897999999997
 30
0.0
 10
491.7528875772769
 20
-302.4993999999997
 30
0.0
 10
488.6000000000004
 20
-304.3611000000001
 30
0.0
 10
485.9599999999991
 20
-307.1431000000002
 30
0.0
 10
485.1474877441433
 20
-305.6580000000004
 30
0.0
 10
484.2517877667706
 20
-304.2094999999999
 30
0.0
 10
483.28118779129
 20
-302.7943999999998
 30
0.0
 10
486.3772877130759
 20
-299.8316000000004
 30
0.0
 10
490.0290876208237
 20
-297.8131999999996
 30
0.0
 10
494.2010000000009
 20
-296.7716
 30
0.0
 10
500.1275873657141
 20
-295.2919000000002
 30
0.0
 10
506.3948872073888
 20
-295.9570000000003
 30
0.0
 10
512.2029999999995
 20
-297.6414000000004
 30
0.0
 10
518.7276868958361
 20
-299.5335999999998
 30
0.0
 10
524.5810000000001
 20
-303.1486999999997
 30
0.0
 10
530.9233865877468
 20
-305.5315000000001
 30
0.0
 10
546.1358862034467
 20
-311.2470000000003
 30
0.0
 10
563.147585773695
 20
-312.0445
 30
0.0
 10
578.3662853892383
 20
-305.8918000000003
 30
0.0
 10
608.7328846221135
 20
-293.6148000000003
 30
0.0
 10
630.0352840839696
 20
-291.1457
 30
0.0
 10
649.5561835908302
 20
-323.3994000000002
 30
0.0
 10
654.7111834606039
 20
-331.9170999999997
 30
0.0
 10
659.243183346116
 20
-341.1956
 30
0.0
 10
665.4484831893569
 20
-349.0246999999999
 30
0.0
 10
673.9108829755787
 20
-359.7012000000004
 30
0.0
 10
689.0280825936861
 20
-365.4450999999999
 30
0.0
 10
701.4312822803549
 20
-369.9984999999997
 30
0.0
 10
709.2110820838207
 20
-372.8545000000004
 30
0.0
 10
717.1702818827544
 20
-376.8772000000008
 30
0.0
 10
721.9430817621833
 20
-383.9267999999993
 30
0.0
 10
725.772381665447
 20
-389.5830000000005
 30
0.0
 10
726.9843816348293
 20
-396.1959000000006
 30
0.0
 10
725.543381671232
 20
-403.5794000000005
 30
0.0
  0
SPLINE
  5
51
330
4C
100
AcDbEntity
  8
Layer 1
370
     0
100
AcDbSpline
210
0.0
220
0.0
230
1.0
 70
    11
 71
     3
 72
    20
 73
    16
 74
     0
 42
0.0000000001
 43
0.0000000001
 12
1.0
 22
0.0
 32
0.0
 13
1.0
 23
0.0
 33
0.0
 40
0.0
 40
0.0
 40
0.0
 40
0.0
 40
1.0
 40
1.0
 40
1.0
 40
2.0
 40
2.0
 40
2.0
 40
3.0
 40
3.0
 40
3.0
 40
4.0
 40
4.0
 40
4.0
 40
5.0
 40
5.0
 40
5.0
 40
5.0
 10
639.6988838398465
 20
-432.4650999999994
 30
0.0
 10
639.6988838398465
 20
-432.4650999999994
 30
0.0
 10
638.5251838694967
 20
-428.5030999999999
 30
0.0
 10
638.5251838694967
 20
-428.5030999999999
 30
0.0
 10
568.549785637224
 20
-449.2227000000003
 30
0.0
 10
528.5419999999995
 20
-386.8834999999999
 30
0.0
 10
528.1458866579123
 20
-386.2512999999999
 30
0.0
 10
528.1458866579123
 20
-386.2512999999999
 30
0.0
 10
524.6417867464334
 20
-388.4421000000002
 30
0.0
 10
524.6417867464334
 20
-388.4421000000002
 30
0.0
 10
524.9148867395343
 20
-388.8803000000007
 30
0.0
 10
543.402
 20
-417.7597000000005
 30
0.0
 10
577.2375854177517
 20
-430.7083999999995
 30
0.0
 10
594.2828849871512
 20
-437.2314999999999
 30
0.0
 10
615.2307844579627
 20
-439.7093000000004
 30
0.0
 10
639.6988838398465
 20
-432.4650999999994
 30
0.0
  0
SPLINE
  5
52
330
4C
100
AcDbEntity
  8
Layer 1
370
     0
100
AcDbSpline
210
0.0
220
0.0
230
1.0
 70
    11
 71
     3
 72
    20
 73
    16
 74
     0
 42
0.0000000001
 43
0.0000000001
 12
1.0
 22
0.0
 32
0.0
 13
1.0
 23
0.0
 33
0.0
 40
0.0
 40
0.0
 40
0.0
 40
0.0
 40
1.0
 40
1.0
 40
1.0
 40
2.0
 40
2.0
 40
2.0
 40
3.0
 40
3.0
 40
3.0
 40
4.0
 40
4.0
 40
4.0
 40
5.0
 40
5.0
 40
5.0
 40
5.0
 10
656.2990834204902
 20
-413.7788999999993
 30
0.0
 10
656.2990834204902
 20
-413.7788999999993
 30
0.0
 10
655.750683434344
 20
-409.6828000000005
 30
0.0
 10
655.750683434344
 20
-409.6828000000005
 30
0.0
 10
589.0333851197647
 20
-418.6007000000009
 30
0.0
 10
528.4249999999993
 20
-357.732
 30
0.0
 10
527.8206866661276
 20
-357.1153000000004
 30
0.0
 10
527.8206866661276
 20
-357.1153000000004
 30
0.0
 10
524.8698867406711
 20
-360.0105000000003
 30
0.0
 10
524.8698867406711
 20
-360.0105000000003
 30
0.0
 10
525.2941867299523
 20
-360.4425000000001
 30
0.0
 10
554.5552859907548
 20
-389.8579000000009
 30
0.0
 10
595.0798849670173
 20
-405.3665000000001
 30
0.0
 10
613.6797844971443
 20
-412.4845999999998
 30
0.0
 10
634.6580839671878
 20
-416.6715999999997
 30
0.0
 10
656.2990834204902
 20
-413.7788999999993
 30
0.0
  0
SPLINE
  5
53
330
4C
100
AcDbEntity
  8
Layer 1
370
     0
100
AcDbSpline
210
0.0
220
0.0
230
1.0
 70
    11
 71
     3
 72
    53
 73
    49
 74
     0
 42
0.0000000001
 43
0.0000000001
 12
1.0
 22
0.0
 32
0.0
 13
1.0
 23
0.0
 33
0.0
 40
0.0
 40
0.0
 40
0.0
 40
0.0
 40
1.0
 40
1.0
 40
1.0
 40
2.0
 40
2.0
 40
2.0
 40
3.0
 40
3.0
 40
3.0
 40
4.0
 40
4.0
 40
4.0
 40
5.0
 40
5.0
 40
5.0
 40
6.0
 40
6.0
 40
6.0
 40
7.0
 40
7.0
 40
7.0
 40
8.0
 40
8.0
 40
8.0
 40
9.0
 40
9.0
 40
9.0
 40
10.0
 40
10.0
 40
10.0
 40
11.0
 40
11.0
 40
11.0
 40
12.0
 40
12.0
 40
12.0
 40
13.0
 40
13.0
 40
13.0
 40
14.0
 40
14.0
 40
14.0
 40
15.0
 40
15.0
 40
15.0
 40
16.0
 40
16.0
 40
16.0
 40
16.0
 10
660.263483320341
 20
-387.2075000000004
 30
0.0
 10
662.9619999999995
 20
-388.4045000000006
 30
0.0
 10
665.661683183971
 20
-389.6034999999993
 30
0.0
 10
668.366483115642
 20
-390.7839000000004
 30
0.0
 10
668.366483115642
 20
-390.7839000000004
 30
0.0
 10
670.0175830739317
 20
-386.9935999999998
 30
0.0
 10
670.0175830739317
 20
-386.9935999999998
 30
0.0
 10
667.3210831420511
 20
-385.8181999999997
 30
0.0
 10
664.6314832099961
 20
-384.6247000000003
 30
0.0
 10
661.9410832779613
 20
-383.4292000000005
 30
0.0
 10
656.6877834106708
 20
-381.0972000000002
 30
0.0
 10
651.2560835478871
 20
-378.6849000000002
 30
0.0
 10
645.8478836845097
 20
-376.4510000000009
 30
0.0
 10
637.2183839025092
 20
-372.8858
 30
0.0
 10
630.0627840832749
 20
-367.6873999999998
 30
0.0
 10
622.4869999999992
 20
-362.1863999999996
 30
0.0
 10
620.0590843359896
 20
-360.4223000000002
 30
0.0
 10
617.6132843977757
 20
-358.6460999999999
 30
0.0
 10
615.0972844613352
 20
-356.9088000000002
 30
0.0
 10
606.9130846680855
 20
-351.2631000000001
 30
0.0
 10
595.4400000000005
 20
-347.3134
 30
0.0
 10
584.4036852367208
 20
-346.3468000000003
 30
0.0
 10
562.9118857796493
 20
-344.4681
 30
0.0
 10
545.4966862195943
 20
-337.3037999999997
 30
0.0
 10
538.937786385286
 20
-334.6071000000002
 30
0.0
 10
536.7077864416206
 20
-333.6896999999999
 30
0.0
 10
536.0348864586194
 20
-333.4201000000003
 30
0.0
 10
535.4582864731856
 20
-333.3498
 30
0.0
 10
535.4582864731856
 20
-333.3498
 30
0.0
 10
534.8320864890047
 20
-337.4303
 30
0.0
 10
534.8320864890047
 20
-337.4303
 30
0.0
 10
535.1203864817217
 20
-337.5078000000003
 30
0.0
 10
536.2611864529026
 20
-337.9737999999998
 30
0.0
 10
537.366
 20
-338.4294
 30
0.0
 10
544.0840862552795
 20
-341.1887999999999
 30
0.0
 10
561.9204858046942
 20
-348.5316000000003
 30
0.0
 10
584.0444852457949
 20
-350.4655000000002
 30
0.0
 10
594.3971849842637
 20
-351.3708999999999
 30
0.0
 10
605.1252847132491
 20
-355.0493999999999
 30
0.0
 10
612.7491845206532
 20
-360.3113000000003
 30
0.0
 10
615.2385844577657
 20
-362.0280000000002
 30
0.0
 10
617.6570843966692
 20
-363.7851000000001
 30
0.0
 10
620.0592843359846
 20
-365.5308000000005
 30
0.0
 10
627.4953841481329
 20
-370.9315999999999
 30
0.0
 10
635.1867839538318
 20
-376.5182999999997
 30
0.0
 10
644.2695837243809
 20
-380.2724999999991
 30
0.0
 10
649.6292835889835
 20
-382.4843999999994
 30
0.0
 10
655.0343834524392
 20
-384.8847999999998
 30
0.0
 10
660.263483320341
 20
-387.2075000000004
 30
0.0
  0
ENDBLK
  5
4F
330
4C
100
AcDbEntity
  8
0
100
AcDbBlockEnd
  0
ENDSEC
  0
SECTION
  2
ENTITIES
  0
SPLINE
  5
41
330
1F
100
AcDbEntity
  8
Layer 1
370
     0
100
AcDbSpline
210
0.0
220
0.0
230
1.0
 70
    11
 71
     3
 72
    23
 73
    19
 74
     0
 42
0.0000000001
 43
0.0000000001
 12
1.0
 22
0.0
 32
0.0
 13
1.0
 23
0.0
 33
0.0
 40
0.0
 40
0.0
 40
0.0
 40
0.0
 40
1.0
 40
1.0
 40
1.0
 40
2.0
 40
2.0
 40
2.0
 40
3.0
 40
3.0
 40
3.0
 40
4.0
 40
4.0
 40
4.0
 40
5.0
 40
5.0
 40
5.0
 40
6.0
 40
6.0
 40
6.0
 40
6.0
 10
201.1583949183114
 20
-350.4546
 30
0.0
 10
198.0770949961516
 20
-342.3661000000002
 30
0.0
 10
207.1243947675976
 20
-334.4180999999999
 30
0.0
 10
212.5832946296941
 20
-329.9802
 30
0.0
 10
219.7106944496409
 20
-324.1863999999996
 30
0.0
 10
227.7261942471523
 20
-318.9812000000002
 30
0.0
 10
236.1123940352991
 20
-315.1868999999997
 30
0.0
 10
241.5232938986082
 20
-312.7389999999996
 30
0.0
 10
248.4167937244638
 20
-310.9115000000002
 30
0.0
 10
253.5617935944902
 20
-314.8923000000004
 30
0.0
 10
260.4528934204063
 20
-320.2237999999998
 30
0.0
 10
255.6898935407298
 20
-328.7052999999996
 30
0.0
 10
250.7617936652241
 20
-333.4004000000004
 30
0.0
 10
242.5215938733891
 20
-340.9089999999997
 30
0.0
 10
232.8257941183256
 20
-347.7509
 30
0.0
 10
222.8093943713611
 20
-352.6334999999999
 30
0.0
 10
216.187194538652
 20
-355.8616000000002
 30
0.0
 10
204.7820000000002
 20
-359.9669000000004
 30
0.0
 10
201.1583949183114
 20
-350.4546
 30
0.0
  0
SPLINE
  5
42
330
1F
100
AcDbEntity
  8
Layer 1
370
     0
100
AcDbSpline
210
0.0
220
0.0
230
1.0
 70
    11
 71
     3
 72
    59
 73
    55
 74
     0
 42
0.0000000001
 43
0.0000000001
 12
1.0
 22
0.0
 32
0.0
 13
1.0
 23
0.0
 33
0.0
 40
0.0
 40
0.0
 40
0.0
 40
0.0
 40
1.0
 40
1.0
 40
1.0
 40
2.0
 40
2.0
 40
2.0
 40
3.0
 40
3.0
 40
3.0
 40
4.0
 40
4.0
 40
4.0
 40
5.0
 40
5.0
 40
5.0
 40
6.0
 40
6.0
 40
6.0
 40
7.0
 40
7.0
 40
7.0
 40
8.0
 40
8.0
 40
8.0
 40
9.0
 40
9.0
 40
9.0
 40
10.0
 40
10.0
 40
10.0
 40
11.0
 40
11.0
 40
11.0
 40
12.0
 40
12.0
 40
12.0
 40
13.0
 40
13.0
 40
13.0
 40
14.0
 40
14.0
 40
14.0
 40
15.0
 40
15.0
 40
15.0
 40
16.0
 40
16.0
 40
16.0
 40
17.0
 40
17.0
 40
17.0
 40
18.0
 40
18.0
 40
18.0
 40
18.0
 10
109.5256972331481
 20
-402.8248000000003
 30
0.0
 10
109.5256972331481
 20
-402.8248000000003
 30
0.0
 10
126.4387968058873
 20
-389.1852999999992
 30
0.0
 10
126.4387968058873
 20
-389.1852999999992
 30
0.0
 10
151.6250961696278
 20
-368.7258000000002
 30
0.0
 10
164.2203958514438
 20
-349.8135000000002
 30
0.0
 10
164.2203958514438
 20
-332.4444000000003
 30
0.0
 10
164.2203958514438
 20
-317.2596999999996
 30
0.0
 10
157.8544960122599
 20
-304.8027000000002
 30
0.0
 10
145.125
 20
-295.0717999999997
 30
0.0
 10
132.3931966554665
 20
-285.3429999999998
 30
0.0
 10
116.162197065496
 20
-280.4773000000005
 30
0.0
 10
96.43159999999989
 20
-280.4773000000005
 30
0.0
 10
49.78420000000006
 20
-280.4773000000005
 30
0.0
 10
26.46000000000004
 20
-299.3471
 30
0.0
 10
26.46000000000004
 20
-337.0820000000003
 30
0.0
 10
26.46000000000004
 20
-342.2650000000003
 30
0.0
 10
27.55140000000029
 20
-349.1315999999997
 30
0.0
 10
29.73379999999997
 20
-357.6776
 30
0.0
 10
29.73379999999997
 20
-357.6776
 30
0.0
 10
58.51310000000012
 20
-364.4975000000004
 30
0.0
 10
58.51310000000012
 20
-364.4975000000004
 30
0.0
 10
55.42100000000028
 20
-352.9506000000001
 30
0.0
 10
53.8760000000002
 20
-343.9933000000001
 30
0.0
 10
53.8760000000002
 20
-337.6274000000003
 30
0.0
 10
53.8760000000002
 20
-310.7125999999998
 30
0.0
 10
64.60440000000017
 20
-297.2542000000003
 30
0.0
 10
86.0655999999999
 20
-297.2542000000003
 30
0.0
 10
103.7050973801888
 20
-297.2542000000003
 30
0.0
 10
112.5261971573491
 20
-308.3937999999998
 30
0.0
 10
112.5261971573491
 20
-330.6713
 30
0.0
 10
112.5261971573491
 20
-347.4032999999999
 30
0.0
 10
96.02239999999983
 20
-371.5452999999998
 30
0.0
 10
63.01429999999982
 20
-403.0977000000003
 30
0.0
 10
48.28349999999955
 20
-417.2829999999994
 30
0.0
 10
35.23419999999987
 20
-430.6496999999999
 30
0.0
 10
23.86890000000039
 20
-443.1983
 30
0.0
 10
23.86890000000039
 20
-443.1983
 30
0.0
 10
23.86890000000039
 20
-469.5226999999995
 30
0.0
 10
23.86890000000039
 20
-469.5226999999995
 30
0.0
 10
23.86890000000039
 20
-469.5226999999995
 30
0.0
 10
162.720195889342
 20
-469.5226999999995
 30
0.0
 10
162.720195889342
 20
-469.5226999999995
 30
0.0
 10
162.720195889342
 20
-469.5226999999995
 30
0.0
 10
162.720195889342
 20
-424.7847999999994
 30
0.0
 10
162.720195889342
 20
-424.7847999999994
 30
0.0
 10
162.720195889342
 20
-424.7847999999994
 30
0.0
 10
82.10969999999998
 20
-424.7847999999994
 30
0.0
 10
82.10969999999998
 20
-424.7847999999994
 30
0.0
 10
86.7473
 20
-421.6028999999999
 30
0.0
 10
89.65650000000005
 20
-419.5120999999999
 30
0.0
 10
90.83910000000014
 20
-418.5105999999996
 30
0.0
 10
90.83910000000014
 20
-418.5105999999996
 30
0.0
 10
109.5256972331481
 20
-402.8248000000003
 30
0.0
 10
109.5256972331481
 20
-402.8248000000003
 30
0.0
  0
SPLINE
  5
43
330
1F
100
AcDbEntity
  8
Layer 1
370
     0
100
AcDbSpline
210
0.0
220
0.0
230
1.0
 70
    11
 71
     3
 72
    59
 73
    55
 74
     0
 42
0.0000000001
 43
0.0000000001
 12
1.0
 22
0.0
 32
0.0
 13
1.0
 23
0.0
 33
0.0
 40
0.0
 40
0.0
 40
0.0
 40
0.0
 40
1.0
 40
1.0
 40
1.0
 40
2.0
 40
2.0
 40
2.0
 40
3.0
 40
3.0
 40
3.0
 40
4.0
 40
4.0
 40
4.0
 40
5.0
 40
5.0
 40
5.0
 40
6.0
 40
6.0
 40
6.0
 40
7.0
 40
7.0
 40
7.0
 40
8.0
 40
8.0
 40
8.0
 40
9.0
 40
9.0
 40
9.0
 40
10.0
 40
10.0
 40
10.0
 40
11.0
 40
11.0
 40
11.0
 40
12.0
 40
12.0
 40
12.0
 40
13.0
 40
13.0
 40
13.0
 40
14.0
 40
14.0
 40
14.0
 40
15.0
 40
15.0
 40
15.0
 40
16.0
 40
16.0
 40
16.0
 40
17.0
 40
17.0
 40
17.0
 40
18.0
 40
18.0
 40
18.0
 40
18.0
 10
411.4634896055577
 20
-418.5105999999996
 30
0.0
 10
411.4634896055577
 20
-418.5105999999996
 30
0.0
 10
430.1501891334919
 20
-402.8248000000003
 30
0.0
 10
430.1501891334919
 20
-402.8248000000003
 30
0.0
 10
430.1501891334919
 20
-402.8248000000003
 30
0.0
 10
447.0631887062336
 20
-389.1852999999992
 30
0.0
 10
447.0631887062336
 20
-389.1852999999992
 30
0.0
 10
472.2494880699742
 20
-368.7258000000002
 30
0.0
 10
484.8448877517876
 20
-349.8135000000002
 30
0.0
 10
484.8448877517876
 20
-332.4444000000003
 30
0.0
 10
484.8448877517876
 20
-317.2596999999996
 30
0.0
 10
478.4789999999994
 20
-304.8027000000002
 30
0.0
 10
465.7493882341805
 20
-295.0717999999997
 30
0.0
 10
453.0175885558128
 20
-285.3429999999998
 30
0.0
 10
436.7866889658399
 20
-280.4773000000005
 30
0.0
 10
417.0560894642767
 20
-280.4773000000005
 30
0.0
 10
370.4085906426917
 20
-280.4773000000005
 30
0.0
 10
347.084491231908
 20
-299.3471
 30
0.0
 10
347.084491231908
 20
-337.0820000000003
 30
0.0
 10
347.084491231908
 20
-342.2650000000003
 30
0.0
 10
348.1758912043369
 20
-349.1315999999997
 30
0.0
 10
350.3581911492074
 20
-357.6776
 30
0.0
 10
350.3581911492074
 20
-357.6776
 30
0.0
 10
379.1375904221786
 20
-364.4975000000004
 30
0.0
 10
379.1375904221786
 20
-364.4975000000004
 30
0.0
 10
376.0453905002942
 20
-352.9506000000001
 30
0.0
 10
374.5004905393216
 20
-343.9933000000001
 30
0.0
 10
374.5004905393216
 20
-337.6274000000003
 30
0.0
 10
374.5004905393216
 20
-310.7125999999998
 30
0.0
 10
385.228790268302
 20
-297.2542000000003
 30
0.0
 10
406.6900000000005
 20
-297.2542000000003
 30
0.0
 10
424.3294892805352
 20
-297.2542000000003
 30
0.0
 10
433.1505890576955
 20
-308.3937999999998
 30
0.0
 10
433.1505890576955
 20
-330.6713
 30
0.0
 10
433.1505890576955
 20
-347.4032999999999
 30
0.0
 10
416.6467894746165
 20
-371.5452999999998
 30
0.0
 10
383.6386903084713
 20
-403.0977000000003
 30
0.0
 10
368.9078906806026
 20
-417.2829999999994
 30
0.0
 10
355.8585910102556
 20
-430.6496999999999
 30
0.0
 10
344.4932912973673
 20
-443.1983
 30
0.0
 10
344.4932912973673
 20
-443.1983
 30
0.0
 10
344.4932912973673
 20
-469.5226999999995
 30
0.0
 10
344.4932912973673
 20
-469.5226999999995
 30
0.0
 10
344.4932912973673
 20
-469.5226999999995
 30
0.0
 10
483.3445877896884
 20
-469.5226999999995
 30
0.0
 10
483.3445877896884
 20
-469.5226999999995
 30
0.0
 10
483.3445877896884
 20
-469.5226999999995
 30
0.0
 10
483.3445877896884
 20
-424.7847999999994
 30
0.0
 10
483.3445877896884
 20
-424.7847999999994
 30
0.0
 10
483.3445877896884
 20
-424.7847999999994
 30
0.0
 10
402.7340898260809
 20
-424.7847999999994
 30
0.0
 10
402.7340898260809
 20
-424.7847999999994
 30
0.0
 10
407.3716897089253
 20
-421.6028999999999
 30
0.0
 10
410.2808896354327
 20
-419.5120999999999
 30
0.0
 10
411.4634896055577
 20
-418.5105999999996
 30
0.0
  0
SPLINE
  5
44
330
1F
100
AcDbEntity
  8
Layer 1
370
     0
100
AcDbSpline
210
0.0
220
0.0
230
1.0
 70
    11
 71
     3
 72
    17
 73
    13
 74
     0
 42
0.0000000001
 43
0.0000000001
 12
1.0
 22
0.0
 32
0.0
 13
1.0
 23
0.0
 33
0.0
 40
0.0
 40
0.0
 40
0.0
 40
0.0
 40
1.0
 40
1.0
 40
1.0
 40
2.0
 40
2.0
 40
2.0
 40
3.0
 40
3.0
 40
3.0
 40
4.0
 40
4.0
 40
4.0
 40
4.0
 10
404.0988897916031
 20
-371.0155000000004
 30
0.0
 10
396.9651899718156
 20
-356.0025999999998
 30
0.0
 10
389.831290152033
 20
-340.9895999999999
 30
0.0
 10
382.6973903322505
 20
-325.9768000000004
 30
0.0
 10
382.2411903437751
 20
-328.701
 30
0.0
 10
381.9532903510481
 20
-331.7646000000004
 30
0.0
 10
381.861890353357
 20
-335.2094999999999
 30
0.0
 10
388.1518901944582
 20
-348.4467000000004
 30
0.0
 10
394.4419999999991
 20
-361.6839
 30
0.0
 10
400.7320898766557
 20
-374.9210999999996
 30
0.0
 10
401.9053898470156
 20
-373.5878000000002
 30
0.0
 10
403.0268898186841
 20
-372.2861000000003
 30
0.0
 10
404.0988897916031
 20
-371.0155000000004
 30
0.0
  0
INSERT
  5
46
330
1F
100
AcDbEntity
  8
Layer 1
100
AcDbBlockReference
  2
block 2
 10
0.0
 20
0.0
 30
0.0
  0
INSERT
  5
4D
330
1F
100
AcDbEntity
  8
Layer 1
100
AcDbBlockReference
  2
block 3
 10
0.0
 20
0.0
 30
0.0
  0
SPLINE
  5
54
330
1F
100
AcDbEntity
  8
Layer 1
370
     0
100
AcDbSpline
210
0.0
220
0.0
230
1.0
 70
    11
 71
     3
 72
    20
 73
    16
 74
     0
 42
0.0000000001
 43
0.0000000001
 12
1.0
 22
0.0
 32
0.0
 13
1.0
 23
0.0
 33
0.0
 40
0.0
 40
0.0
 40
0.0
 40
0.0
 40
1.0
 40
1.0
 40
1.0
 40
2.0
 40
2.0
 40
2.0
 40
3.0
 40
3.0
 40
3.0
 40
4.0
 40
4.0
 40
4.0
 40
5.0
 40
5.0
 40
5.0
 40
5.0
 10
286.2582927685071
 20
-349.2849999999999
 30
0.0
 10
285.3368927917836
 20
-349.7033000000001
 30
0.0
 10
284.9288928020906
 20
-350.7893000000004
 30
0.0
 10
285.3470927915259
 20
-351.7106999999996
 30
0.0
 10
285.3470927915259
 20
-351.7106999999996
 30
0.0
 10
288.8980000000001
 20
-359.5334999999995
 30
0.0
 10
288.8980000000001
 20
-359.5334999999995
 30
0.0
 10
290.0096926737388
 20
-359.0155000000004
 30
0.0
 10
291.1341926453315
 20
-358.5344999999998
 30
0.0
 10
292.280392616376
 20
-358.1193000000003
 30
0.0
 10
292.280392616376
 20
-358.1193000000003
 30
0.0
 10
288.6840000000002
 20
-350.1962000000003
 30
0.0
 10
288.6840000000002
 20
-350.1962000000003
 30
0.0
 10
288.2656927177959
 20
-349.2740999999996
 30
0.0
 10
287.1792927452407
 20
-348.8679000000002
 30
0.0
 10
286.2582927685071
 20
-349.2849999999999
 30
0.0
  0
SPLINE
  5
55
330
1F
100
AcDbEntity
  8
Layer 1
370
     0
100
AcDbSpline
210
0.0
220
0.0
230
1.0
 70
    11
 71
     3
 72
    17
 73
    13
 74
     0
 42
0.0000000001
 43
0.0000000001
 12
1.0
 22
0.0
 32
0.0
 13
1.0
 23
0.0
 33
0.0
 40
0.0
 40
0.0
 40
0.0
 40
0.0
 40
1.0
 40
1.0
 40
1.0
 40
2.0
 40
2.0
 40
2.0
 40
3.0
 40
3.0
 40
3.0
 40
4.0
 40
4.0
 40
4.0
 40
4.0
 10
299.1233924435073
 20
-373.1950999999999
 30
0.0
 10
299.1233924435073
 20
-373.1950999999999
 30
0.0
 10
293.4162925876808
 20
-360.6219000000001
 30
0.0
 10
293.4162925876808
 20
-360.6219000000001
 30
0.0
 10
292.2656926167474
 20
-361.0223999999998
 30
0.0
 10
291.13979264519
 20
-361.5030999999999
 30
0.0
 10
290.0266926733093
 20
-362.0204000000003
 30
0.0
 10
290.0266926733093
 20
-362.0204000000003
 30
0.0
 10
295.7640000000001
 20
-374.6602000000003
 30
0.0
 10
295.7640000000001
 20
-374.6602000000003
 30
0.0
 10
296.8841925000743
 20
-374.1602000000003
 30
0.0
 10
297.9905924721243
 20
-373.6424999999999
 30
0.0
 10
299.1233924435073
 20
-373.1950999999999
 30
0.0
  0
SPLINE
  5
56
330
1F
100
AcDbEntity
  8
Layer 1
370
     0
100
AcDbSpline
210
0.0
220
0.0
230
1.0
 70
    11
 71
     3
 72
    17
 73
    13
 74
     0
 42
0.0000000001
 43
0.0000000001
 12
1.0
 22
0.0
 32
0.0
 13
1.0
 23
0.0
 33
0.0
 40
0.0
 40
0.0
 40
0.0
 40
0.0
 40
1.0
 40
1.0
 40
1.0
 40
2.0
 40
2.0
 40
2.0
 40
3.0
 40
3.0
 40
3.0
 40
4.0
 40
4.0
 40
4.0
 40
4.0
 10
306.5604922556304
 20
-389.5802000000003
 30
0.0
 10
306.5604922556304
 20
-389.5802000000003
 30
0.0
 10
300.2529999999997
 20
-375.6840000000002
 30
0.0
 10
300.2529999999997
 20
-375.6840000000002
 30
0.0
 10
299.1128924437726
 20
-376.1126999999997
 30
0.0
 10
298.0026924718186
 20
-376.6298999999999
 30
0.0
 10
296.8890924999505
 20
-377.1388000000006
 30
0.0
 10
296.8890924999505
 20
-377.1388000000006
 30
0.0
 10
303.4757923335565
 20
-391.6499999999996
 30
0.0
 10
303.4757923335565
 20
-391.6499999999996
 30
0.0
 10
304.5165923072636
 20
-390.9832000000006
 30
0.0
 10
305.5402922814028
 20
-390.2847000000002
 30
0.0
 10
306.5604922556304
 20
-389.5802000000003
 30
0.0
  0
SPLINE
  5
57
330
1F
100
AcDbEntity
  8
Layer 1
370
     0
100
AcDbSpline
210
0.0
220
0.0
230
1.0
 70
    11
 71
     3
 72
    17
 73
    13
 74
     0
 42
0.0000000001
 43
0.0000000001
 12
1.0
 22
0.0
 32
0.0
 13
1.0
 23
0.0
 33
0.0
 40
0.0
 40
0.0
 40
0.0
 40
0.0
 40
1.0
 40
1.0
 40
1.0
 40
2.0
 40
2.0
 40
2.0
 40
3.0
 40
3.0
 40
3.0
 40
4.0
 40
4.0
 40
4.0
 40
4.0
 10
315.6387920262932
 20
-409.5809000000008
 30
0.0
 10
315.6387920262932
 20
-409.5809000000008
 30
0.0
 10
307.710092226589
 20
-392.1126999999997
 30
0.0
 10
307.710092226589
 20
-392.1126999999997
 30
0.0
 10
306.6904922523463
 20
-392.8171000000002
 30
0.0
 10
305.6645922782627
 20
-393.5112000000008
 30
0.0
 10
304.6212923046187
 20
-394.1741000000002
 30
0.0
 10
304.6212923046187
 20
-394.1741000000002
 30
0.0
 10
312.2764921112321
 20
-411.0393000000004
 30
0.0
 10
312.2764921112321
 20
-411.0393000000004
 30
0.0
 10
313.3967920829309
 20
-410.5517999999993
 30
0.0
 10
314.5158920546601
 20
-410.0611000000008
 30
0.0
 10
315.6387920262932
 20
-409.5809000000008
 30
0.0
  0
SPLINE
  5
58
330
1F
100
AcDbEntity
  8
Layer 1
370
     0
100
AcDbSpline
210
0.0
220
0.0
230
1.0
 70
    11
 71
     3
 72
    23
 73
    19
 74
     0
 42
0.0000000001
 43
0.0000000001
 12
1.0
 22
0.0
 32
0.0
 13
1.0
 23
0.0
 33
0.0
 40
0.0
 40
0.0
 40
0.0
 40
0.0
 40
1.0
 40
1.0
 40
1.0
 40
2.0
 40
2.0
 40
2.0
 40
3.0
 40
3.0
 40
3.0
 40
4.0
 40
4.0
 40
4.0
 40
5.0
 40
5.0
 40
5.0
 40
6.0
 40
6.0
 40
6.0
 40
6.0
 10
320.0432919150262
 20
-425.5483000000004
 30
0.0
 10
320.2968919086197
 20
-425.5483000000004
 30
0.0
 10
320.5540919021223
 20
-425.4955000000009
 30
0.0
 10
320.7996918959179
 20
-425.3840999999993
 30
0.0
 10
321.7210918726414
 20
-424.9658999999992
 30
0.0
 10
322.1290918623345
 20
-423.8798999999999
 30
0.0
 10
321.7107918729016
 20
-422.9585000000006
 30
0.0
 10
321.7107918729016
 20
-422.9585000000006
 30
0.0
 10
316.7722919976586
 20
-412.0779999999995
 30
0.0
 10
316.7722919976586
 20
-412.0779999999995
 30
0.0
 10
315.6477920260659
 20
-412.5557000000008
 30
0.0
 10
314.5270920543771
 20
-413.0427999999993
 30
0.0
 10
313.4056920827061
 20
-413.5270999999993
 30
0.0
 10
313.4056920827061
 20
-413.5270999999993
 30
0.0
 10
318.3739999999998
 20
-424.473
 30
0.0
 10
318.3739999999998
 20
-424.473
 30
0.0
 10
318.6808919494433
 20
-425.1489000000001
 30
0.0
 10
319.3468919326187
 20
-425.5483000000004
 30
0.0
 10
320.0432919150262
 20
-425.5483000000004
 30
0.0
  0
HATCH
  5
59
330
1F
100
AcDbEntity
  8
Layer 1
 62
   250
420
  2301728
100
AcDbHatch
 10
0.0
 20
0.0
 30
0.0
210
0.0
220
0.0
230
1.0
  2
SOLID
 70
     1
 71
     0
 91
       16
 92
        1
 93
        1
 72
     4
 94
        3
 73
     0
 74
     1
 95
       23
 96
       19
 40
0.0
 40
0.0
 40
0.0
 40
0.0
 40
1.0
 40
1.0
 40
1.0
 40
2.0
 40
2.0
 40
2.0
 40
3.0
 40
3.0
 40
3.0
 40
4.0
 40
4.0
 40
4.0
 40
5.0
 40
5.0
 40
5.0
 40
6.0
 40
6.0
 40
6.0
 40
6.0
 10
201.1583949183114
 20
-350.4546
 10
198.0770949961516
 20
-342.3661000000002
 10
207.1243947675976
 20
-334.4180999999999
 10
212.5832946296941
 20
-329.9802
 10
219.7106944496409
 20
-324.1863999999996
 10
227.7261942471523
 20
-318.9812000000002
 10
236.1123940352991
 20
-315.1868999999997
 10
241.5232938986082
 20
-312.7389999999996
 10
248.4167937244638
 20
-310.9115000000002
 10
253.5617935944902
 20
-314.8923000000004
 10
260.4528934204063
 20
-320.2237999999998
 10
255.6898935407298
 20
-328.7052999999996
 10
250.7617936652241
 20
-333.4004000000004
 10
242.5215938733891
 20
-340.9089999999997
 10
232.8257941183256
 20
-347.7509
 10
222.8093943713611
 20
-352.6334999999999
 10
216.187194538652
 20
-355.8616000000002
 10
204.7820000000002
 20
-359.9669000000004
 10
201.1583949183114
 20
-350.4546
 97
        0
 97
        0
 92
        1
 93
        1
 72
     4
 94
        3
 73
     0
 74
     1
 95
       59
 96
       55
 40
0.0
 40
0.0
 40
0.0
 40
0.0
 40
1.0
 40
1.0
 40
1.0
 40
2.0
 40
2.0
 40
2.0
 40
3.0
 40
3.0
 40
3.0
 40
4.0
 40
4.0
 40
4.0
 40
5.0
 40
5.0
 40
5.0
 40
6.0
 40
6.0
 40
6.0
 40
7.0
 40
7.0
 40
7.0
 40
8.0
 40
8.0
 40
8.0
 40
9.0
 40
9.0
 40
9.0
 40
10.0
 40
10.0
 40
10.0
 40
11.0
 40
11.0
 40
11.0
 40
12.0
 40
12.0
 40
12.0
 40
13.0
 40
13.0
 40
13.0
 40
14.0
 40
14.0
 40
14.0
 40
15.0
 40
15.0
 40
15.0
 40
16.0
 40
16.0
 40
16.0
 40
17.0
 40
17.0
 40
17.0
 40
18.0
 40
18.0
 40
18.0
 40
18.0
 10
109.5256972331481
 20
-402.8248000000003
 10
109.5256972331481
 20
-402.8248000000003
 10
126.4387968058873
 20
-389.1852999999992
 10
126.4387968058873
 20
-389.1852999999992
 10
151.6250961696278
 20
-368.7258000000002
 10
164.2203958514438
 20
-349.8135000000002
 10
164.2203958514438
 20
-332.4444000000003
 10
164.2203958514438
 20
-317.2596999999996
 10
157.8544960122599
 20
-304.8027000000002
 10
145.125
 20
-295.0717999999997
 10
132.3931966554665
 20
-285.3429999999998
 10
116.162197065496
 20
-280.4773000000005
 10
96.43159999999989
 20
-280.4773000000005
 10
49.78420000000006
 20
-280.4773000000005
 10
26.46000000000004
 20
-299.3471
 10
26.46000000000004
 20
-337.0820000000003
 10
26.46000000000004
 20
-342.2650000000003
 10
27.55140000000029
 20
-349.1315999999997
 10
29.73379999999997
 20
-357.6776
 10
29.73379999999997
 20
-357.6776
 10
58.51310000000012
 20
-364.4975000000004
 10
58.51310000000012
 20
-364.4975000000004
 10
55.42100000000028
 20
-352.9506000000001
 10
53.8760000000002
 20
-343.9933000000001
 10
53.8760000000002
 20
-337.6274000000003
 10
53.8760000000002
 20
-310.7125999999998
 10
64.60440000000017
 20
-297.2542000000003
 10
86.0655999999999
 20
-297.2542000000003
 10
103.7050973801888
 20
-297.2542000000003
 10
112.5261971573491
 20
-308.3937999999998
 10
112.5261971573491
 20
-330.6713
 10
112.5261971573491
 20
-347.4032999999999
 10
96.02239999999983
 20
-371.5452999999998
 10
63.01429999999982
 20
-403.0977000000003
 10
48.28349999999955
 20
-417.2829999999994
 10
35.23419999999987
 20
-430.6496999999999
 10
23.86890000000039
 20
-443.1983
 10
23.86890000000039
 20
-443.1983
 10
23.86890000000039
 20
-469.5226999999995
 10
23.86890000000039
 20
-469.5226999999995
 10
23.86890000000039
 20
-469.5226999999995
 10
162.720195889342
 20
-469.5226999999995
 10
162.720195889342
 20
-469.5226999999995
 10
162.720195889342
 20
-469.5226999999995
 10
162.720195889342
 20
-424.7847999999994
 10
162.720195889342
 20
-424.7847999999994
 10
162.720195889342
 20
-424.7847999999994
 10
82.10969999999998
 20
-424.7847999999994
 10
82.10969999999998
 20
-424.7847999999994
 10
86.7473
 20
-421.6028999999999
 10
89.65650000000005
 20
-419.5120999999999
 10
90.83910000000014
 20
-418.5105999999996
 10
90.83910000000014
 20
-418.5105999999996
 10
109.5256972331481
 20
-402.8248000000003
 10
109.5256972331481
 20
-402.8248000000003
 97
        0
 97
        0
 92
        1
 93
        1
 72
     4
 94
        3
 73
     0
 74
     1
 95
       59
 96
       55
 40
0.0
 40
0.0
 40
0.0
 40
0.0
 40
1.0
 40
1.0
 40
1.0
 40
2.0
 40
2.0
 40
2.0
 40
3.0
 40
3.0
 40
3.0
 40
4.0
 40
4.0
 40
4.0
 40
5.0
 40
5.0
 40
5.0
 40
6.0
 40
6.0
 40
6.0
 40
7.0
 40
7.0
 40
7.0
 40
8.0
 40
8.0
 40
8.0
 40
9.0
 40
9.0
 40
9.0
 40
10.0
 40
10.0
 40
10.0
 40
11.0
 40
11.0
 40
11.0
 40
12.0
 40
12.0
 40
12.0
 40
13.0
 40
13.0
 40
13.0
 40
14.0
 40
14.0
 40
14.0
 40
15.0
 40
15.0
 40
15.0
 40
16.0
 40
16.0
 40
16.0
 40
17.0
 40
17.0
 40
17.0
 40
18.0
 40
18.0
 40
18.0
 40
18.0
 10
411.4634896055577
 20
-418.5105999999996
 10
411.4634896055577
 20
-418.5105999999996
 10
430.1501891334919
 20
-402.8248000000003
 10
430.1501891334919
 20
-402.8248000000003
 10
430.1501891334919
 20
-402.8248000000003
 10
447.0631887062336
 20
-389.1852999999992
 10
447.0631887062336
 20
-389.1852999999992
 10
472.2494880699742
 20
-368.7258000000002
 10
484.8448877517876
 20
-349.8135000000002
 10
484.8448877517876
 20
-332.4444000000003
 10
484.8448877517876
 20
-317.2596999999996
 10
478.4789999999994
 20
-304.8027000000002
 10
465.7493882341805
 20
-295.0717999999997
 10
453.0175885558128
 20
-285.3429999999998
 10
436.7866889658399
 20
-280.4773000000005
 10
417.0560894642767
 20
-280.4773000000005
 10
370.4085906426917
 20
-280.4773000000005
 10
347.084491231908
 20
-299.3471
 10
347.084491231908
 20
-337.0820000000003
 10
347.084491231908
 20
-342.2650000000003
 10
348.1758912043369
 20
-349.1315999999997
 10
350.3581911492074
 20
-357.6776
 10
350.3581911492074
 20
-357.6776
 10
379.1375904221786
 20
-364.4975000000004
 10
379.1375904221786
 20
-364.4975000000004
 10
376.0453905002942
 20
-352.9506000000001
 10
374.5004905393216
 20
-343.9933000000001
 10
374.5004905393216
 20
-337.6274000000003
 10
374.5004905393216
 20
-310.7125999999998
 10
385.228790268302
 20
-297.2542000000003
 10
406.6900000000005
 20
-297.2542000000003
 10
424.3294892805352
 20
-297.2542000000003
 10
433.1505890576955
 20
-308.3937999999998
 10
433.1505890576955
 20
-330.6713
 10
433.1505890576955
 20
-347.4032999999999
 10
416.6467894746165
 20
-371.5452999999998
 10
383.6386903084713
 20
-403.0977000000003
 10
368.9078906806026
 20
-417.2829999999994
 10
355.8585910102556
 20
-430.6496999999999
 10
344.4932912973673
 20
-443.1983
 10
344.4932912973673
 20
-443.1983
 10
344.4932912973673
 20
-469.5226999999995
 10
344.4932912973673
 20
-469.5226999999995
 10
344.4932912973673
 20
-469.5226999999995
 10
483.3445877896884
 20
-469.5226999999995
 10
483.3445877896884
 20
-469.5226999999995
 10
483.3445877896884
 20
-469.5226999999995
 10
483.3445877896884
 20
-424.7847999999994
 10
483.3445877896884
 20
-424.7847999999994
 10
483.3445877896884
 20
-424.7847999999994
 10
402.7340898260809
 20
-424.7847999999994
 10
402.7340898260809
 20
-424.7847999999994
 10
407.3716897089253
 20
-421.6028999999999
 10
410.2808896354327
 20
-419.5120999999999
 10
411.4634896055577
 20
-418.5105999999996
 97
        0
 97
        0
 92
        1
 93
        1
 72
     4
 94
        3
 73
     0
 74
     1
 95
       17
 96
       13
 40
0.0
 40
0.0
 40
0.0
 40
0.0
 40
1.0
 40
1.0
 40
1.0
 40
2.0
 40
2.0
 40
2.0
 40
3.0
 40
3.0
 40
3.0
 40
4.0
 40
4.0
 40
4.0
 40
4.0
 10
404.0988897916031
 20
-371.0155000000004
 10
396.9651899718156
 20
-356.0025999999998
 10
389.831290152033
 20
-340.9895999999999
 10
382.6973903322505
 20
-325.9768000000004
 10
382.2411903437751
 20
-328.701
 10
381.9532903510481
 20
-331.7646000000004
 10
381.861890353357
 20
-335.2094999999999
 10
388.1518901944582
 20
-348.4467000000004
 10
394.4419999999991
 20
-361.6839
 10
400.7320898766557
 20
-374.9210999999996
 10
401.9053898470156
 20
-373.5878000000002
 10
403.0268898186841
 20
-372.2861000000003
 10
404.0988897916031
 20
-371.0155000000004
 97
        0
 97
        0
 92
        1
 93
        1
 72
     4
 94
        3
 73
     0
 74
     1
 95
       86
 96
       82
 40
0.0
 40
0.0
 40
0.0
 40
0.0
 40
1.0
 40
1.0
 40
1.0
 40
2.0
 40
2.0
 40
2.0
 40
3.0
 40
3.0
 40
3.0
 40
4.0
 40
4.0
 40
4.0
 40
5.0
 40
5.0
 40
5.0
 40
6.0
 40
6.0
 40
6.0
 40
7.0
 40
7.0
 40
7.0
 40
8.0
 40
8.0
 40
8.0
 40
9.0
 40
9.0
 40
9.0
 40
10.0
 40
10.0
 40
10.0
 40
11.0
 40
11.0
 40
11.0
 40
12.0
 40
12.0
 40
12.0
 40
13.0
 40
13.0
 40
13.0
 40
14.0
 40
14.0
 40
14.0
 40
15.0
 40
15.0
 40
15.0
 40
16.0
 40
16.0
 40
16.0
 40
17.0
 40
17.0
 40
17.0
 40
18.0
 40
18.0
 40
18.0
 40
19.0
 40
19.0
 40
19.0
 40
20.0
 40
20.0
 40
20.0
 40
21.0
 40
21.0
 40
21.0
 40
22.0
 40
22.0
 40
22.0
 40
23.0
 40
23.0
 40
23.0
 40
24.0
 40
24.0
 40
24.0
 40
25.0
 40
25.0
 40
25.0
 40
26.0
 40
26.0
 40
26.0
 40
27.0
 40
27.0
 40
27.0
 40
27.0
 10
378.4292904400718
 20
-397.9406999999992
 10
365.9383907556185
 20
-401.6671000000006
 10
354.1611910531356
 20
-407.7176999999992
 10
343.437491324039
 20
-415.7286999999997
 10
326.4223917538766
 20
-428.4390000000003
 10
311.7164921253789
 20
-444.3593999999994
 10
292.8540926018832
 20
-454.5043999999998
 10
275.271493046057
 20
-463.9613000000008
 10
253.4447935974458
 20
-467.7011000000002
 10
235.3532940544756
 20
-457.4274999999998
 10
226.9000942680213
 20
-452.6273000000001
 10
219.9692944431081
 20
-445.5403999999999
 10
213.8490000000002
 20
-438.0854999999992
 10
207.370794761373
 20
-430.1944999999996
 10
201.4372949112658
 20
-421.8374999999996
 10
196.0635950470169
 20
-413.1584999999995
 10
185.055095325115
 20
-395.3785000000007
 10
176.4725955419271
 20
-376.1371999999992
 10
170.4719999999998
 20
-356.1098000000002
 10
170.4087956951116
 20
-355.8991999999998
 10
170.3810000000003
 20
-355.6998999999996
 10
170.3707956960716
 20
-355.5075999999999
 10
170.2443956992647
 20
-355.1346000000003
 10
170.1128957025867
 20
-354.7650999999996
 10
169.9990957054615
 20
-354.3829999999998
 10
162.6243958917621
 20
-329.6588000000002
 10
187.4222952653145
 20
-312.1895000000004
 10
205.4480948099445
 20
-301.3046000000004
 10
219.5535944536095
 20
-292.7866999999997
 10
235.9971940382093
 20
-285.3712999999998
 10
252.2993936263811
 20
-286.6945999999998
 10
252.5993936188024
 20
-286.5559000000003
 10
252.950093609943
 20
-286.4767000000002
 10
253.3609999999999
 20
-286.4907999999996
 10
264.6508933143559
 20
-286.8792000000003
 10
275.7880930330066
 20
-291.8519999999999
 10
283.8230000000003
 20
-299.7744000000002
 10
292.7044926056624
 20
-308.5313999999998
 10
297.8632924753401
 20
-320.5573000000004
 10
302.7258923525005
 20
-331.8765000000003
 10
315.6984920247851
 20
-325.1824999999999
 10
329.1003916862246
 20
-319.3495000000003
 10
342.8772913381908
 20
-314.5811999999996
 10
342.3256913521254
 20
-316.3716000000004
 10
341.8452913642614
 20
-318.2155999999995
 10
341.4400913744976
 20
-320.1154999999999
 10
312.9572920940336
 20
-330.3424999999997
 10
286.1705927707226
 20
-345.1684999999998
 10
261.4280933957707
 20
-362.6099000000004
 10
248.816593714364
 20
-372.6504000000004
 10
233.5396941002909
 20
-379.2402999999995
 10
217.2858945108965
 20
-380.5087999999996
 10
204.4881948341936
 20
-381.5072999999993
 10
189.9094952024825
 20
-378.2170999999998
 10
180.0513954515191
 20
-369.732
 10
186.2935952938278
 20
-386.4249
 10
194.4157950886438
 20
-402.3813000000009
 10
204.3074948387584
 20
-417.2422000000006
 10
214.8011945736653
 20
-433.0072
 10
228.0274942395408
 20
-452.0208000000002
 10
247.2939999999999
 20
-457.3332000000009
 10
267.6838932377359
 20
-462.9554000000007
 10
288.2681927177327
 20
-453.3215999999993
 10
304.4327923093806
 20
-441.4861999999994
 10
321.0018918908099
 20
-429.3549999999996
 10
335.1976915321939
 20
-414.0910000000003
 10
352.9920910826695
 20
-403.6211999999996
 10
363.0278908291439
 20
-397.7162000000008
 10
373.9950905520891
 20
-393.5558000000001
 10
385.3440902653892
 20
-391.1998999999996
 10
383.1970000000001
 20
-393.3369999999995
 10
380.9437903765502
 20
-395.5355999999992
 10
378.5748904363936
 20
-397.8001999999997
 10
378.5748904363936
 20
-397.8001999999997
 10
378.5650904366412
 20
-397.8094999999994
 10
378.5650904366412
 20
-397.8094999999994
 10
378.5650904366412
 20
-397.8094999999994
 10
378.5554904368837
 20
-397.8189000000002
 10
378.5554904368837
 20
-397.8189000000002
 10
378.5131904379523
 20
-397.8595999999998
 10
378.4715904390032
 20
-397.8999999999996
 10
378.4292904400718
 20
-397.9406999999992
 97
        0
 97
        0
 92
        1
 93
        1
 72
     4
 94
        3
 73
     0
 74
     1
 95
       20
 96
       16
 40
0.0
 40
0.0
 40
0.0
 40
0.0
 40
1.0
 40
1.0
 40
1.0
 40
2.0
 40
2.0
 40
2.0
 40
3.0
 40
3.0
 40
3.0
 40
4.0
 40
4.0
 40
4.0
 40
5.0
 40
5.0
 40
5.0
 40
5.0
 10
278.5618929629345
 20
-344.6066000000001
 10
278.119392974113
 20
-345.2223000000004
 10
277.6689999999999
 20
-345.8325000000004
 10
277.2111929970561
 20
-346.4368000000004
 10
284.1830928209311
 20
-342.0762999999997
 10
291.2992926411607
 20
-337.9395999999997
 10
298.5540000000001
 20
-334.0672999999997
 10
294.6892925555221
 20
-325.0607
 10
290.6712926570253
 20
-315.6516000000001
 10
284.629692809649
 20
-307.8527999999997
 10
285.3347927918367
 20
-309.5169999999998
 10
285.8883927778515
 20
-311.2575999999999
 10
286.2676927682696
 20
-313.0657000000001
 10
288.5850927097272
 20
-324.1156000000001
 10
284.8588928038589
 20
-335.5284000000001
 10
278.5618929629345
 20
-344.6066000000001
 97
        0
 97
        0
 92
        1
 93
        1
 72
     4
 94
        3
 73
     0
 74
     1
 95
       35
 96
       31
 40
0.0
 40
0.0
 40
0.0
 40
0.0
 40
1.0
 40
1.0
 40
1.0
 40
2.0
 40
2.0
 40
2.0
 40
3.0
 40
3.0
 40
3.0
 40
4.0
 40
4.0
 40
4.0
 40
5.0
 40
5.0
 40
5.0
 40
6.0
 40
6.0
 40
6.0
 40
7.0
 40
7.0
 40
7.0
 40
8.0
 40
8.0
 40
8.0
 40
9.0
 40
9.0
 40
9.0
 40
10.0
 40
10.0
 40
10.0
 40
10.0
 10
177.9587955043826
 20
-360.1583000000001
 10
188.6438952344542
 20
-375.9781999999996
 10
210.0255946943071
 20
-378.1841999999997
 10
227.1687942612334
 20
-374.2447000000002
 10
236.7929999999997
 20
-372.0331999999999
 10
245.8861937883921
 20
-367.8958000000002
 10
253.9925935836072
 20
-362.3054000000002
 10
254.1454935797447
 20
-362.0902999999998
 10
254.3292935751015
 20
-361.8860000000004
 10
254.5732935689375
 20
-361.7091
 10
256.0889999999999
 20
-360.6107000000002
 10
257.6155934920826
 20
-359.5255999999999
 10
259.1472934533886
 20
-358.4466000000002
 10
264.9475933068607
 20
-353.7457000000004
 10
270.1247931760736
 20
-348.2704999999996
 10
274.4744930661909
 20
-342.2174999999997
 10
281.0220929007846
 20
-332.7779
 10
285.0165927998751
 20
-320.0824000000002
 10
280.0130929262741
 20
-309.0460999999996
 10
275.9650930285352
 20
-300.1178
 10
267.0390932540249
 20
-294.5645999999997
 10
257.7797934879345
 20
-292.3072000000002
 10
236.8573940164788
 20
-287.2057999999997
 10
216.3401945347869
 20
-299.6530000000002
 10
199.5071949600242
 20
-310.6061
 10
190.556295186143
 20
-316.4300999999996
 10
181.7634954082678
 20
-323.2554
 10
176.8784955316733
 20
-333.0060000000003
 10
172.4701956430363
 20
-341.8051999999998
 10
172.3726956454993
 20
-351.8873000000003
 10
177.9587955043826
 20
-360.1583000000001
 97
        0
 97
        0
 92
        1
 93
        1
 72
     4
 94
        3
 73
     0
 74
     1
 95
      128
 96
      124
 40
0.0
 40
0.0
 40
0.0
 40
0.0
 40
1.0
 40
1.0
 40
1.0
 40
2.0
 40
2.0
 40
2.0
 40
3.0
 40
3.0
 40
3.0
 40
4.0
 40
4.0
 40
4.0
 40
5.0
 40
5.0
 40
5.0
 40
6.0
 40
6.0
 40
6.0
 40
7.0
 40
7.0
 40
7.0
 40
8.0
 40
8.0
 40
8.0
 40
9.0
 40
9.0
 40
9.0
 40
10.0
 40
10.0
 40
10.0
 40
11.0
 40
11.0
 40
11.0
 40
12.0
 40
12.0
 40
12.0
 40
13.0
 40
13.0
 40
13.0
 40
14.0
 40
14.0
 40
14.0
 40
15.0
 40
15.0
 40
15.0
 40
16.0
 40
16.0
 40
16.0
 40
17.0
 40
17.0
 40
17.0
 40
18.0
 40
18.0
 40
18.0
 40
19.0
 40
19.0
 40
19.0
 40
20.0
 40
20.0
 40
20.0
 40
21.0
 40
21.0
 40
21.0
 40
22.0
 40
22.0
 40
22.0
 40
23.0
 40
23.0
 40
23.0
 40
24.0
 40
24.0
 40
24.0
 40
25.0
 40
25.0
 40
25.0
 40
26.0
 40
26.0
 40
26.0
 40
27.0
 40
27.0
 40
27.0
 40
28.0
 40
28.0
 40
28.0
 40
29.0
 40
29.0
 40
29.0
 40
30.0
 40
30.0
 40
30.0
 40
31.0
 40
31.0
 40
31.0
 40
32.0
 40
32.0
 40
32.0
 40
33.0
 40
33.0
 40
33.0
 40
34.0
 40
34.0
 40
34.0
 40
35.0
 40
35.0
 40
35.0
 40
36.0
 40
36.0
 40
36.0
 40
37.0
 40
37.0
 40
37.0
 40
38.0
 40
38.0
 40
38.0
 40
39.0
 40
39.0
 40
39.0
 40
40.0
 40
40.0
 40
40.0
 40
41.0
 40
41.0
 40
41.0
 40
41.0
 10
725.543381671232
 20
-403.5794000000005
 10
722.5330817472786
 20
-419.0162999999993
 10
713.7871819682186
 20
-431.5977999999996
 10
701.551182277326
 20
-438.0984000000008
 10
689.9418825706016
 20
-444.2666000000008
 10
675.6195829324133
 20
-444.8127000000004
 10
659.7566833331439
 20
-439.8104999999996
 10
638.9277838593262
 20
-461.1293999999998
 10
608.9990846153887
 20
-474.9148999999998
 10
568.0563856496883
 20
-457.7260000000006
 10
521.6739999999991
 20
-438.2525999999998
 10
507.2858871848803
 20
-409.6496000000006
 10
505.6263872268028
 20
-380.9588999999996
 10
495.3075874874776
 20
-376.6540999999997
 10
487.0791876953444
 20
-370.9835999999996
 10
481.1971878439363
 20
-364.1578
 10
481.2960878414378
 20
-364.0114000000003
 10
481.4011878387828
 20
-363.8639999999996
 10
481.4986878363197
 20
-363.7178000000004
 10
482.3813878140209
 20
-362.3919999999998
 10
483.2097877930937
 20
-361.0680000000002
 10
483.9840877735332
 20
-359.7464
 10
489.0277876461187
 20
-366.0403999999999
 10
496.263387463332
 20
-371.3460999999998
 10
505.4644872308927
 20
-375.4808000000003
 10
505.3864872328631
 20
-356.3994000000002
 10
510.3996871062191
 20
-337.5342000000001
 10
514.8321869942447
 20
-321.5528999999997
 10
515.7488869710869
 20
-321.9551000000001
 10
516.6650000000009
 20
-322.3613999999998
 10
517.594886924453
 20
-322.7173000000003
 10
537.3724864248288
 20
-330.2861000000003
 10
559.9017858556908
 20
-327.5432000000001
 10
576.8857854266389
 20
-323.2038000000002
 10
580.0570853465251
 20
-322.393
 10
583.2652852654792
 20
-321.2782999999999
 10
586.3681851870933
 20
-320.1994000000004
 10
591.6478850537169
 20
-318.3648000000003
 10
597.1077849157882
 20
-316.4660999999996
 10
602.5450847784305
 20
-316.0091000000002
 10
612.1432845359595
 20
-315.1995999999999
 10
621.7360000000008
 20
-321.0766000000003
 10
628.1150841324779
 20
-325.5664999999999
 10
636.038683932311
 20
-331.1435000000001
 10
641.040083805965
 20
-338.3301000000001
 10
645.3745836964663
 20
-350.3716000000004
 10
651.9477835304133
 20
-368.6252000000004
 10
674.5712829588956
 20
-379.1396999999997
 10
693.209882488045
 20
-386.2626
 10
687.6814826277041
 20
-399.8300999999992
 10
678.0351828713901
 20
-419.4555999999993
 10
663.5161832381709
 20
-435.7795000000006
 10
677.1730000000007
 20
-439.6466
 10
689.3641825851955
 20
-438.9573999999993
 10
699.2247823360958
 20
-433.7194999999992
 10
710.1336820605138
 20
-427.9228999999996
 10
717.9514818630196
 20
-416.5920999999998
 10
720.6759999999995
 20
-402.6293000000005
 10
721.8536817644417
 20
-396.5885999999991
 10
720.8993817885494
 20
-391.2309000000005
 10
717.8362818659298
 20
-386.7083999999995
 10
712.5092820005011
 20
-378.840400000001
 10
702.2397822599305
 20
-375.2635
 10
697.7435823735141
 20
-374.0230000000001
 10
697.0386823913213
 20
-376.1543999999994
 10
696.0411824165203
 20
-379.0171000000009
 10
694.7323824495834
 20
-382.4200999999994
 10
676.8325829017704
 20
-375.5829999999996
 10
655.25
 20
-365.5969000000005
 10
649.2635835982219
 20
-348.9728999999998
 10
646.0267836799903
 20
-339.9809000000005
 10
641.2655838002684
 20
-329.7676000000001
 10
630.4944840723692
 20
-322.1863000000003
 10
623.5857842468977
 20
-317.3226999999997
 10
613.1370000000006
 20
-310.9677000000001
 10
602.1988847871762
 20
-311.8901999999998
 10
596.2415849376703
 20
-312.3918999999996
 10
590.5324850818943
 20
-314.3768
 10
585.0115852213639
 20
-316.2954
 10
581.8511853012023
 20
-317.3936999999996
 10
578.8639999999996
 20
-318.4322000000002
 10
575.8632854524694
 20
-319.1994000000004
 10
558.6005858885619
 20
-323.6102000000001
 10
535.4282864739434
 20
-326.3361999999997
 10
515.9445869661431
 20
-317.5461999999998
 10
517.1122869366445
 20
-313.3366999999998
 10
518.1852869095383
 20
-309.3800000000001
 10
519.080786886916
 20
-305.6831000000002
 10
515.0600869884875
 20
-303.6565000000001
 10
504.7664872485257
 20
-299.2331000000004
 10
495.3806874856309
 20
-301.5897999999997
 10
491.7528875772769
 20
-302.4993999999997
 10
488.6000000000004
 20
-304.3611000000001
 10
485.9599999999991
 20
-307.1431000000002
 10
485.1474877441433
 20
-305.6580000000004
 10
484.2517877667706
 20
-304.2094999999999
 10
483.28118779129
 20
-302.7943999999998
 10
486.3772877130759
 20
-299.8316000000004
 10
490.0290876208237
 20
-297.8131999999996
 10
494.2010000000009
 20
-296.7716
 10
500.1275873657141
 20
-295.2919000000002
 10
506.3948872073888
 20
-295.9570000000003
 10
512.2029999999995
 20
-297.6414000000004
 10
518.7276868958361
 20
-299.5335999999998
 10
524.5810000000001
 20
-303.1486999999997
 10
530.9233865877468
 20
-305.5315000000001
 10
546.1358862034467
 20
-311.2470000000003
 10
563.147585773695
 20
-312.0445
 10
578.3662853892383
 20
-305.8918000000003
 10
608.7328846221135
 20
-293.6148000000003
 10
630.0352840839696
 20
-291.1457
 10
649.5561835908302
 20
-323.3994000000002
 10
654.7111834606039
 20
-331.9170999999997
 10
659.243183346116
 20
-341.1956
 10
665.4484831893569
 20
-349.0246999999999
 10
673.9108829755787
 20
-359.7012000000004
 10
689.0280825936861
 20
-365.4450999999999
 10
701.4312822803549
 20
-369.9984999999997
 10
709.2110820838207
 20
-372.8545000000004
 10
717.1702818827544
 20
-376.8772000000008
 10
721.9430817621833
 20
-383.9267999999993
 10
725.772381665447
 20
-389.5830000000005
 10
726.9843816348293
 20
-396.1959000000006
 10
725.543381671232
 20
-403.5794000000005
 97
        0
 97
        0
 92
        1
 93
        1
 72
     4
 94
        3
 73
     0
 74
     1
 95
       20
 96
       16
 40
0.0
 40
0.0
 40
0.0
 40
0.0
 40
1.0
 40
1.0
 40
1.0
 40
2.0
 40
2.0
 40
2.0
 40
3.0
 40
3.0
 40
3.0
 40
4.0
 40
4.0
 40
4.0
 40
5.0
 40
5.0
 40
5.0
 40
5.0
 10
639.6988838398465
 20
-432.4650999999994
 10
639.6988838398465
 20
-432.4650999999994
 10
638.5251838694967
 20
-428.5030999999999
 10
638.5251838694967
 20
-428.5030999999999
 10
568.549785637224
 20
-449.2227000000003
 10
528.5419999999995
 20
-386.8834999999999
 10
528.1458866579123
 20
-386.2512999999999
 10
528.1458866579123
 20
-386.2512999999999
 10
524.6417867464334
 20
-388.4421000000002
 10
524.6417867464334
 20
-388.4421000000002
 10
524.9148867395343
 20
-388.8803000000007
 10
543.402
 20
-417.7597000000005
 10
577.2375854177517
 20
-430.7083999999995
 10
594.2828849871512
 20
-437.2314999999999
 10
615.2307844579627
 20
-439.7093000000004
 10
639.6988838398465
 20
-432.4650999999994
 97
        0
 97
        0
 92
        1
 93
        1
 72
     4
 94
        3
 73
     0
 74
     1
 95
       20
 96
       16
 40
0.0
 40
0.0
 40
0.0
 40
0.0
 40
1.0
 40
1.0
 40
1.0
 40
2.0
 40
2.0
 40
2.0
 40
3.0
 40
3.0
 40
3.0
 40
4.0
 40
4.0
 40
4.0
 40
5.0
 40
5.0
 40
5.0
 40
5.0
 10
656.2990834204902
 20
-413.7788999999993
 10
656.2990834204902
 20
-413.7788999999993
 10
655.750683434344
 20
-409.6828000000005
 10
655.750683434344
 20
-409.6828000000005
 10
589.0333851197647
 20
-418.6007000000009
 10
528.4249999999993
 20
-357.732
 10
527.8206866661276
 20
-357.1153000000004
 10
527.8206866661276
 20
-357.1153000000004
 10
524.8698867406711
 20
-360.0105000000003
 10
524.8698867406711
 20
-360.0105000000003
 10
525.2941867299523
 20
-360.4425000000001
 10
554.5552859907548
 20
-389.8579000000009
 10
595.0798849670173
 20
-405.3665000000001
 10
613.6797844971443
 20
-412.4845999999998
 10
634.6580839671878
 20
-416.6715999999997
 10
656.2990834204902
 20
-413.7788999999993
 97
        0
 97
        0
 92
        1
 93
        1
 72
     4
 94
        3
 73
     0
 74
     1
 95
       53
 96
       49
 40
0.0
 40
0.0
 40
0.0
 40
0.0
 40
1.0
 40
1.0
 40
1.0
 40
2.0
 40
2.0
 40
2.0
 40
3.0
 40
3.0
 40
3.0
 40
4.0
 40
4.0
 40
4.0
 40
5.0
 40
5.0
 40
5.0
 40
6.0
 40
6.0
 40
6.0
 40
7.0
 40
7.0
 40
7.0
 40
8.0
 40
8.0
 40
8.0
 40
9.0
 40
9.0
 40
9.0
 40
10.0
 40
10.0
 40
10.0
 40
11.0
 40
11.0
 40
11.0
 40
12.0
 40
12.0
 40
12.0
 40
13.0
 40
13.0
 40
13.0
 40
14.0
 40
14.0
 40
14.0
 40
15.0
 40
15.0
 40
15.0
 40
16.0
 40
16.0
 40
16.0
 40
16.0
 10
660.263483320341
 20
-387.2075000000004
 10
662.9619999999995
 20
-388.4045000000006
 10
665.661683183971
 20
-389.6034999999993
 10
668.366483115642
 20
-390.7839000000004
 10
668.366483115642
 20
-390.7839000000004
 10
670.0175830739317
 20
-386.9935999999998
 10
670.0175830739317
 20
-386.9935999999998
 10
667.3210831420511
 20
-385.8181999999997
 10
664.6314832099961
 20
-384.6247000000003
 10
661.9410832779613
 20
-383.4292000000005
 10
656.6877834106708
 20
-381.0972000000002
 10
651.2560835478871
 20
-378.6849000000002
 10
645.8478836845097
 20
-376.4510000000009
 10
637.2183839025092
 20
-372.8858
 10
630.0627840832749
 20
-367.6873999999998
 10
622.4869999999992
 20
-362.1863999999996
 10
620.0590843359896
 20
-360.4223000000002
 10
617.6132843977757
 20
-358.6460999999999
 10
615.0972844613352
 20
-356.9088000000002
 10
606.9130846680855
 20
-351.2631000000001
 10
595.4400000000005
 20
-347.3134
 10
584.4036852367208
 20
-346.3468000000003
 10
562.9118857796493
 20
-344.4681
 10
545.4966862195943
 20
-337.3037999999997
 10
538.937786385286
 20
-334.6071000000002
 10
536.7077864416206
 20
-333.6896999999999
 10
536.0348864586194
 20
-333.4201000000003
 10
535.4582864731856
 20
-333.3498
 10
535.4582864731856
 20
-333.3498
 10
534.8320864890047
 20
-337.4303
 10
534.8320864890047
 20
-337.4303
 10
535.1203864817217
 20
-337.5078000000003
 10
536.2611864529026
 20
-337.9737999999998
 10
537.366
 20
-338.4294
 10
544.0840862552795
 20
-341.1887999999999
 10
561.9204858046942
 20
-348.5316000000003
 10
584.0444852457949
 20
-350.4655000000002
 10
594.3971849842637
 20
-351.3708999999999
 10
605.1252847132491
 20
-355.0493999999999
 10
612.7491845206532
 20
-360.3113000000003
 10
615.2385844577657
 20
-362.0280000000002
 10
617.6570843966692
 20
-363.7851000000001
 10
620.0592843359846
 20
-365.5308000000005
 10
627.4953841481329
 20
-370.9315999999999
 10
635.1867839538318
 20
-376.5182999999997
 10
644.2695837243809
 20
-380.2724999999991
 10
649.6292835889835
 20
-382.4843999999994
 10
655.0343834524392
 20
-384.8847999999998
 10
660.263483320341
 20
-387.2075000000004
 97
        0
 97
        0
 92
        1
 93
        1
 72
     4
 94
        3
 73
     0
 74
     1
 95
       20
 96
       16
 40
0.0
 40
0.0
 40
0.0
 40
0.0
 40
1.0
 40
1.0
 40
1.0
 40
2.0
 40
2.0
 40
2.0
 40
3.0
 40
3.0
 40
3.0
 40
4.0
 40
4.0
 40
4.0
 40
5.0
 40
5.0
 40
5.0
 40
5.0
 10
286.2582927685071
 20
-349.2849999999999
 10
285.3368927917836
 20
-349.7033000000001
 10
284.9288928020906
 20
-350.7893000000004
 10
285.3470927915259
 20
-351.7106999999996
 10
285.3470927915259
 20
-351.7106999999996
 10
288.8980000000001
 20
-359.5334999999995
 10
288.8980000000001
 20
-359.5334999999995
 10
290.0096926737388
 20
-359.0155000000004
 10
291.1341926453315
 20
-358.5344999999998
 10
292.280392616376
 20
-358.1193000000003
 10
292.280392616376
 20
-358.1193000000003
 10
288.6840000000002
 20
-350.1962000000003
 10
288.6840000000002
 20
-350.1962000000003
 10
288.2656927177959
 20
-349.2740999999996
 10
287.1792927452407
 20
-348.8679000000002
 10
286.2582927685071
 20
-349.2849999999999
 97
        0
 97
        0
 92
        1
 93
        1
 72
     4
 94
        3
 73
     0
 74
     1
 95
       17
 96
       13
 40
0.0
 40
0.0
 40
0.0
 40
0.0
 40
1.0
 40
1.0
 40
1.0
 40
2.0
 40
2.0
 40
2.0
 40
3.0
 40
3.0
 40
3.0
 40
4.0
 40
4.0
 40
4.0
 40
4.0
 10
299.1233924435073
 20
-373.1950999999999
 10
299.1233924435073
 20
-373.1950999999999
 10
293.4162925876808
 20
-360.6219000000001
 10
293.4162925876808
 20
-360.6219000000001
 10
292.2656926167474
 20
-361.0223999999998
 10
291.13979264519
 20
-361.5030999999999
 10
290.0266926733093
 20
-362.0204000000003
 10
290.0266926733093
 20
-362.0204000000003
 10
295.7640000000001
 20
-374.6602000000003
 10
295.7640000000001
 20
-374.6602000000003
 10
296.8841925000743
 20
-374.1602000000003
 10
297.9905924721243
 20
-373.6424999999999
 10
299.1233924435073
 20
-373.1950999999999
 97
        0
 97
        0
 92
        1
 93
        1
 72
     4
 94
        3
 73
     0
 74
     1
 95
       17
 96
       13
 40
0.0
 40
0.0
 40
0.0
 40
0.0
 40
1.0
 40
1.0
 40
1.0
 40
2.0
 40
2.0
 40
2.0
 40
3.0
 40
3.0
 40
3.0
 40
4.0
 40
4.0
 40
4.0
 40
4.0
 10
306.5604922556304
 20
-389.5802000000003
 10
306.5604922556304
 20
-389.5802000000003
 10
300.2529999999997
 20
-375.6840000000002
 10
300.2529999999997
 20
-375.6840000000002
 10
299.1128924437726
 20
-376.1126999999997
 10
298.0026924718186
 20
-376.6298999999999
 10
296.8890924999505
 20
-377.1388000000006
 10
296.8890924999505
 20
-377.1388000000006
 10
303.4757923335565
 20
-391.6499999999996
 10
303.4757923335565
 20
-391.6499999999996
 10
304.5165923072636
 20
-390.9832000000006
 10
305.5402922814028
 20
-390.2847000000002
 10
306.5604922556304
 20
-389.5802000000003
 97
        0
 97
        0
 92
        1
 93
        1
 72
     4
 94
        3
 73
     0
 74
     1
 95
       17
 96
       13
 40
0.0
 40
0.0
 40
0.0
 40
0.0
 40
1.0
 40
1.0
 40
1.0
 40
2.0
 40
2.0
 40
2.0
 40
3.0
 40
3.0
 40
3.0
 40
4.0
 40
4.0
 40
4.0
 40
4.0
 10
315.6387920262932
 20
-409.5809000000008
 10
315.6387920262932
 20
-409.5809000000008
 10
307.710092226589
 20
-392.1126999999997
 10
307.710092226589
 20
-392.1126999999997
 10
306.6904922523463
 20
-392.8171000000002
 10
305.6645922782627
 20
-393.5112000000008
 10
304.6212923046187
 20
-394.1741000000002
 10
304.6212923046187
 20
-394.1741000000002
 10
312.2764921112321
 20
-411.0393000000004
 10
312.2764921112321
 20
-411.0393000000004
 10
313.3967920829309
 20
-410.5517999999993
 10
314.5158920546601
 20
-410.0611000000008
 10
315.6387920262932
 20
-409.5809000000008
 97
        0
 97
        0
 92
        1
 93
        1
 72
     4
 94
        3
 73
     0
 74
     1
 95
       23
 96
       19
 40
0.0
 40
0.0
 40
0.0
 40
0.0
 40
1.0
 40
1.0
 40
1.0
 40
2.0
 40
2.0
 40
2.0
 40
3.0
 40
3.0
 40
3.0
 40
4.0
 40
4.0
 40
4.0
 40
5.0
 40
5.0
 40
5.0
 40
6.0
 40
6.0
 40
6.0
 40
6.0
 10
320.0432919150262
 20
-425.5483000000004
 10
320.2968919086197
 20
-425.5483000000004
 10
320.5540919021223
 20
-425.4955000000009
 10
320.7996918959179
 20
-425.3840999999993
 10
321.7210918726414
 20
-424.9658999999992
 10
322.1290918623345
 20
-423.8798999999999
 10
321.7107918729016
 20
-422.9585000000006
 10
321.7107918729016
 20
-422.9585000000006
 10
316.7722919976586
 20
-412.0779999999995
 10
316.7722919976586
 20
-412.0779999999995
 10
315.6477920260659
 20
-412.5557000000008
 10
314.5270920543771
 20
-413.0427999999993
 10
313.4056920827061
 20
-413.5270999999993
 10
313.4056920827061
 20
-413.5270999999993
 10
318.3739999999998
 20
-424.473
 10
318.3739999999998
 20
-424.473
 10
318.6808919494433
 20
-425.1489000000001
 10
319.3468919326187
 20
-425.5483000000004
 10
320.0432919150262
 20
-425.5483000000004
 97
        0
 97
        0
 75
     2
 76
     1
 98
        0
  0
ENDSEC
  0
SECTION
  2
OBJECTS
  0
DICTIONARY
  5
C
330
0
100
AcDbDictionary
281
     1
  3
ACAD_GROUP
350
D
  3
ACAD_LAYOUT
350
1A
  3
ACAD_MATERIAL
350
3B
  3
ACAD_MLEADERSTYLE
350
5B
  3
ACAD_MLINESTYLE
350
17
  3
ACAD_PLOTSETTINGS
350
19
  3
ACAD_PLOTSTYLENAME
350
E
  3
ACAD_TABLESTYLE
350
5A
  3
ACAD_VISUALSTYLE
350
2A
  0
SUN
  5
3F
330
29
100
AcDbSun
 90
        1
290
     0
 63
     7
421
 16777215
 40
1.0
291
     1
 91
  2455826
 92
 54000000
292
     0
 70
     2
 71
   256
280
     1
  0
DICTIONARY
  5
D
102
{ACAD_REACTORS
330
C
102
}
330
C
100
AcDbDictionary
281
     1
  0
DICTIONARY
  5
1A
102
{ACAD_REACTORS
330
C
102
}
330
C
100
AcDbDictionary
281
     1
  3
Layout1
350
1E
  3
Layout2
350
26
  3
Model
350
22
  0
DICTIONARY
  5
3B
102
{ACAD_REACTORS
330
C
102
}
330
C
100
AcDbDictionary
281
     1
  3
ByBlock
350
3D
  3
ByLayer
350
3C
  3
Global
350
3E
  0
DICTIONARY
  5
5B
102
{ACAD_REACTORS
330
C
102
}
330
C
100
AcDbDictionary
281
     1
  0
DICTIONARY
  5
17
102
{ACAD_REACTORS
330
C
102
}
330
C
100
AcDbDictionary
281
     1
  3
Standard
350
18
  0
DICTIONARY
  5
19
102
{ACAD_REACTORS
330
C
102
}
330
C
100
AcDbDictionary
281
     1
  0
ACDBDICTIONARYWDFLT
  5
E
102
{ACAD_REACTORS
330
C
102
}
330
C
100
AcDbDictionary
281
     1
  3
Normal
350
F
100
AcDbDictionaryWithDefault
340
F
  0
DICTIONARY
  5
5A
102
{ACAD_REACTORS
330
C
102
}
330
C
100
AcDbDictionary
281
     1
  0
DICTIONARY
  5
2A
102
{ACAD_REACTORS
330
C
102
}
330
C
100
AcDbDictionary
281
     1
  3
2dWireframe
350
2F
  3
3D Hidden
350
31
  3
3dWireframe
350
30
  3
Basic
350
32
  3
Brighten
350
36
  3
ColorChange
350
3A
  3
Conceptual
350
34
  3
Dim
350
35
  3
Facepattern
350
39
  3
Flat
350
2B
  3
FlatWithEdges
350
2C
  3
Gouraud
350
2D
  3
GouraudWithEdges
350
2E
  3
Linepattern
350
38
  3
Realistic
350
33
  3
Thicken
350
37
  0
LAYOUT
  5
1E
102
{ACAD_REACTORS
330
1A
102
}
330
1A
100
AcDbPlotSettings
  1

  2
none_device
  4

  6

 40
0.0
 41
0.0
 42
0.0
 43
0.0
 44
0.0
 45
0.0
 46
0.0
 47
0.0
 48
0.0
 49
0.0
140
0.0
141
0.0
142
1.0
143
1.0
 70
   688
 72
     0
 73
     0
 74
     5
  7

 75
    16
 76
     0
 77
     2
 78
   300
147
1.0
148
0.0
149
0.0
100
AcDbLayout
  1
Layout1
 70
     1
 71
     1
 10
0.0
 20
0.0
 11
12.0
 21
9.0
 12
0.0
 22
0.0
 32
0.0
 14
1.000000000000000E+20
 24
1.000000000000000E+20
 34
1.000000000000000E+20
 15
-1.000000000000000E+20
 25
-1.000000000000000E+20
 35
-1.000000000000000E+20
146
0.0
 13
0.0
 23
0.0
 33
0.0
 16
1.0
 26
0.0
 36
0.0
 17
0.0
 27
1.0
 37
0.0
 76
     0
330
1B
  0
LAYOUT
  5
26
102
{ACAD_REACTORS
330
1A
102
}
330
1A
100
AcDbPlotSettings
  1

  2
none_device
  4

  6

 40
0.0
 41
0.0
 42
0.0
 43
0.0
 44
0.0
 45
0.0
 46
0.0
 47
0.0
 48
0.0
 49
0.0
140
0.0
141
0.0
142
1.0
143
1.0
 70
   688
 72
     0
 73
     0
 74
     5
  7

 75
    16
 76
     0
 77
     2
 78
   300
147
1.0
148
0.0
149
0.0
100
AcDbLayout
  1
Layout2
 70
     1
 71
     2
 10
0.0
 20
0.0
 11
0.0
 21
0.0
 12
0.0
 22
0.0
 32
0.0
 14
0.0
 24
0.0
 34
0.0
 15
0.0
 25
0.0
 35
0.0
146
0.0
 13
0.0
 23
0.0
 33
0.0
 16
1.0
 26
0.0
 36
0.0
 17
0.0
 27
1.0
 37
0.0
 76
     0
330
23
  0
LAYOUT
  5
22
102
{ACAD_REACTORS
330
1A
102
}
330
1A
100
AcDbPlotSettings
  1

  2
none_device
  4

  6

 40
0.0
 41
0.0
 42
0.0
 43
0.0
 44
0.0
 45
0.0
 46
0.0
 47
0.0
 48
0.0
 49
0.0
140
0.0
141
0.0
142
1.0
143
1.0
 70
  1712
 72
     0
 73
     0
 74
     0
  7

 75
     0
 76
     0
 77
     2
 78
   300
147
1.0
148
0.0
149
0.0
100
AcDbLayout
  1
Model
 70
     1
 71
     0
 10
0.0
 20
0.0
 11
12.0
 21
9.0
 12
0.0
 22
0.0
 32
0.0
 14
1.000000000000000E+20
 24
1.000000000000000E+20
 34
1.000000000000000E+20
 15
-1.000000000000000E+20
 25
-1.000000000000000E+20
 35
-1.000000000000000E+20
146
0.0
 13
0.0
 23
0.0
 33
0.0
 16
1.0
 26
0.0
 36
0.0
 17
0.0
 27
1.0
 37
0.0
 76
     0
330
1F
331
29
  0
MATERIAL
  5
3D
102
{ACAD_REACTORS
330
3B
102
}
330
3B
100
AcDbMaterial
  1
ByBlock
 72
     1
 94
      127
  0
MATERIAL
  5
3C
102
{ACAD_REACTORS
330
3B
102
}
330
3B
100
AcDbMaterial
  1
ByLayer
 72
     1
 94
      127
  0
MATERIAL
  5
3E
102
{ACAD_REACTORS
330
3B
102
}
330
3B
100
AcDbMaterial
  1
Global
 72
     1
 94
      127
  0
MLINESTYLE
  5
18
102
{ACAD_REACTORS
330
17
102
}
330
17
100
AcDbMlineStyle
  2
Standard
 70
     0
  3

 62
   256
 51
90.0
 52
90.0
 71
     2
 49
0.5
 62
   256
  6
BYLAYER
 49
-0.5
 62
   256
  6
BYLAYER
  0
ACDBPLACEHOLDER
  5
F
102
{ACAD_REACTORS
330
E
102
}
330
E
  0
VISUALSTYLE
  5
2F
102
{ACAD_REACTORS
330
2A
102
}
330
2A
100
AcDbVisualStyle
  2
2dWireframe
 70
     4
177
     2
291
     0
 71
     0
176
     1
 72
     2
176
     1
 73
     0
176
     1
 90
        0
176
     1
 40
-0.6
176
     1
 41
-30.0
176
     1
 62
     5
 63
     7
421
 16777215
176
     1
 74
     1
176
     1
 91
        4
176
     1
 64
     7
176
     1
 65
   257
176
     1
 75
     1
176
     1
175
     1
176
     1
 42
1.0
176
     1
 92
        0
176
     1
 66
   257
176
     1
 43
1.0
176
     1
 76
     1
176
     1
 77
     6
176
     1
 78
     2
176
     1
 67
     7
176
     1
 79
     5
176
     1
170
     0
176
     1
171
     0
176
     1
290
     0
176
     1
 93
        1
176
     1
 44
0.0
176
     1
173
     0
176
     1
  0
VISUALSTYLE
  5
31
102
{ACAD_REACTORS
330
2A
102
}
330
2A
100
AcDbVisualStyle
  2
3D Hidden
 70
     6
177
     2
291
     0
 71
     1
176
     1
 72
     2
176
     1
 73
     2
176
     1
 90
        0
176
     1
 40
-0.6
176
     1
 41
-30.0
176
     1
 62
     5
 63
     7
421
 16777215
176
     1
 74
     2
176
     1
 91
        2
176
     1
 64
     7
176
     1
 65
   257
176
     1
 75
     2
176
     1
175
     1
176
     1
 42
40.0
176
     1
 92
        0
176
     1
 66
   257
176
     1
 43
1.0
176
     1
 76
     1
176
     1
 77
     6
176
     1
 78
     2
176
     1
 67
     7
176
     1
 79
     3
176
     1
170
     0
176
     1
171
     0
176
     1
290
     0
176
     1
 93
        1
176
     1
 44
0.0
176
     1
173
     0
176
     1
  0
VISUALSTYLE
  5
30
102
{ACAD_REACTORS
330
2A
102
}
330
2A
100
AcDbVisualStyle
  2
3dWireframe
 70
     5
177
     2
291
     0
 71
     0
176
     1
 72
     2
176
     1
 73
     0
176
     1
 90
        0
176
     1
 40
-0.6
176
     1
 41
-30.0
176
     1
 62
     5
 63
     7
421
 16777215
176
     1
 74
     1
176
     1
 91
        4
176
     1
 64
     7
176
     1
 65
   257
176
     1
 75
     1
176
     1
175
     1
176
     1
 42
1.0
176
     1
 92
        0
176
     1
 66
   257
176
     1
 43
1.0
176
     1
 76
     1
176
     1
 77
     6
176
     1
 78
     2
176
     1
 67
     7
176
     1
 79
     5
176
     1
170
     0
176
     1
171
     0
176
     1
290
     0
176
     1
 93
        1
176
     1
 44
0.0
176
     1
173
     0
176
     1
  0
VISUALSTYLE
  5
32
102
{ACAD_REACTORS
330
2A
102
}
330
2A
100
AcDbVisualStyle
  2
Basic
 70
     7
177
     2
291
     1
 71
     1
176
     1
 72
     0
176
     1
 73
     1
176
     1
 90
        0
176
     1
 40
-0.6
176
     1
 41
-30.0
176
     1
 62
     5
 63
     7
421
 16777215
176
     1
 74
     0
176
     1
 91
        4
176
     1
 64
     7
176
     1
 65
   257
176
     1
 75
     1
176
     1
175
     1
176
     1
 42
1.0
176
     1
 92
        8
176
     1
 66
     7
176
     1
 43
1.0
176
     1
 76
     1
176
     1
 77
     6
176
     1
 78
     2
176
     1
 67
     7
176
     1
 79
     5
176
     1
170
     0
176
     1
171
     0
176
     1
290
     0
176
     1
 93
        1
176
     1
 44
0.0
176
     1
173
     0
176
     1
  0
VISUALSTYLE
  5
36
102
{ACAD_REACTORS
330
2A
102
}
330
2A
100
AcDbVisualStyle
  2
Brighten
 70
    12
177
     2
291
     1
 71
     2
176
     1
 72
     2
176
     1
 73
     0
176
     1
 90
        0
176
     1
 40
-0.6
176
     1
 41
-30.0
176
     1
 62
     5
 63
     7
421
 16777215
176
     1
 74
     1
176
     1
 91
        4
176
     1
 64
     7
176
     1
 65
   257
176
     1
 75
     1
176
     1
175
     1
176
     1
 42
1.0
176
     1
 92
        8
176
     1
 66
     7
176
     1
 43
1.0
176
     1
 76
     1
176
     1
 77
     6
176
     1
 78
     2
176
     1
 67
     7
176
     1
 79
     5
176
     1
170
     0
176
     1
171
     0
176
     1
290
     0
176
     1
 93
        1
176
     1
 44
50.0
176
     1
173
     0
176
     1
  0
VISUALSTYLE
  5
3A
102
{ACAD_REACTORS
330
2A
102
}
330
2A
100
AcDbVisualStyle
  2
ColorChange
 70
    16
177
     2
291
     1
 71
     2
176
     1
 72
     2
176
     1
 73
     3
176
     1
 90
        0
176
     1
 40
-0.6
176
     1
 41
-30.0
176
     1
 62
     5
 63
     8
421
  8421504
176
     1
 74
     1
176
     1
 91
        4
176
     1
 64
     7
176
     1
 65
   257
176
     1
 75
     1
176
     1
175
     1
176
     1
 42
1.0
176
     1
 92
        8
176
     1
 66
     8
424
  8421504
176
     1
 43
1.0
176
     1
 76
     1
176
     1
 77
     6
176
     1
 78
     2
176
     1
 67
     7
176
     1
 79
     5
176
     1
170
     0
176
     1
171
     0
176
     1
290
     0
176
     1
 93
        1
176
     1
 44
0.0
176
     1
173
     0
176
     1
  0
VISUALSTYLE
  5
34
102
{ACAD_REACTORS
330
2A
102
}
330
2A
100
AcDbVisualStyle
  2
Conceptual
 70
     9
177
     2
291
     0
 71
     3
176
     1
 72
     2
176
     1
 73
     0
176
     1
 90
        0
176
     1
 40
-0.6
176
     1
 41
-30.0
176
     1
 62
     5
 63
     7
421
 16777215
176
     1
 74
     2
176
     1
 91
        2
176
     1
 64
     7
176
     1
 65
   257
176
     1
 75
     1
176
     1
175
     1
176
     1
 42
40.0
176
     1
 92
        8
176
     1
 66
     7
176
     1
 43
1.0
176
     1
 76
     1
176
     1
 77
     6
176
     1
 78
     2
176
     1
 67
     7
176
     1
 79
     3
176
     1
170
     0
176
     1
171
     0
176
     1
290
     0
176
     1
 93
        1
176
     1
 44
0.0
176
     1
173
     0
176
     1
  0
VISUALSTYLE
  5
35
102
{ACAD_REACTORS
330
2A
102
}
330
2A
100
AcDbVisualStyle
  2
Dim
 70
    11
177
     2
291
     1
 71
     2
176
     1
 72
     2
176
     1
 73
     0
176
     1
 90
        0
176
     1
 40
-0.6
176
     1
 41
-30.0
176
     1
 62
     5
 63
     7
421
 16777215
176
     1
 74
     1
176
     1
 91
        4
176
     1
 64
     7
176
     1
 65
   257
176
     1
 75
     1
176
     1
175
     1
176
     1
 42
1.0
176
     1
 92
        8
176
     1
 66
     7
176
     1
 43
1.0
176
     1
 76
     1
176
     1
 77
     6
176
     1
 78
     2
176
     1
 67
     7
176
     1
 79
     5
176
     1
170
     0
176
     1
171
     0
176
     1
290
     0
176
     1
 93
        1
176
     1
 44
-50.0
176
     1
173
     0
176
     1
  0
VISUALSTYLE
  5
39
102
{ACAD_REACTORS
330
2A
102
}
330
2A
100
AcDbVisualStyle
  2
Facepattern
 70
    15
177
     2
291
     1
 71
     2
176
     1
 72
     2
176
     1
 73
     0
176
     1
 90
        0
176
     1
 40
-0.6
176
     1
 41
-30.0
176
     1
 62
     5
 63
     7
421
 16777215
176
     1
 74
     1
176
     1
 91
        4
176
     1
 64
     7
176
     1
 65
   257
176
     1
 75
     1
176
     1
175
     1
176
     1
 42
1.0
176
     1
 92
        8
176
     1
 66
     7
176
     1
 43
1.0
176
     1
 76
     1
176
     1
 77
     6
176
     1
 78
     2
176
     1
 67
     7
176
     1
 79
     5
176
     1
170
     0
176
     1
171
     0
176
     1
290
     0
176
     1
 93
        1
176
     1
 44
0.0
176
     1
173
     0
176
     1
  0
VISUALSTYLE
  5
2B
102
{ACAD_REACTORS
330
2A
102
}
330
2A
100
AcDbVisualStyle
  2
Flat
 70
     0
177
     2
291
     1
 71
     2
176
     1
 72
     1
176
     1
 73
     1
176
     1
 90
        2
176
     1
 40
-0.6
176
     1
 41
30.0
176
     1
 62
     5
 63
     7
421
 16777215
176
     1
 74
     0
176
     1
 91
        4
176
     1
 64
     7
176
     1
 65
   257
176
     1
 75
     1
176
     1
175
     1
176
     1
 42
1.0
176
     1
 92
        8
176
     1
 66
     7
176
     1
 43
1.0
176
     1
 76
     1
176
     1
 77
     6
176
     1
 78
     2
176
     1
 67
     7
176
     1
 79
     5
176
     1
170
     0
176
     1
171
     0
176
     1
290
     0
176
     1
 93
       13
176
     1
 44
0.0
176
     1
173
     0
176
     1
  0
VISUALSTYLE
  5
2C
102
{ACAD_REACTORS
330
2A
102
}
330
2A
100
AcDbVisualStyle
  2
FlatWithEdges
 70
     1
177
     2
291
     1
 71
     2
176
     1
 72
     1
176
     1
 73
     1
176
     1
 90
        2
176
     1
 40
-0.6
176
     1
 41
30.0
176
     1
 62
     5
 63
     7
421
 16777215
176
     1
 74
     1
176
     1
 91
        4
176
     1
 64
     7
176
     1
 65
   257
176
     1
 75
     1
176
     1
175
     1
176
     1
 42
1.0
176
     1
 92
        0
176
     1
 66
   257
176
     1
 43
1.0
176
     1
 76
     1
176
     1
 77
     6
176
     1
 78
     2
176
     1
 67
     7
176
     1
 79
     5
176
     1
170
     0
176
     1
171
     0
176
     1
290
     0
176
     1
 93
       13
176
     1
 44
0.0
176
     1
173
     0
176
     1
  0
VISUALSTYLE
  5
2D
102
{ACAD_REACTORS
330
2A
102
}
330
2A
100
AcDbVisualStyle
  2
Gouraud
 70
     2
177
     2
291
     1
 71
     2
176
     1
 72
     2
176
     1
 73
     1
176
     1
 90
        2
176
     1
 40
-0.6
176
     1
 41
30.0
176
     1
 62
     5
 63
     7
421
 16777215
176
     1
 74
     0
176
     1
 91
        4
176
     1
 64
     7
176
     1
 65
   257
176
     1
 75
     1
176
     1
175
     1
176
     1
 42
1.0
176
     1
 92
        0
176
     1
 66
     7
176
     1
 43
1.0
176
     1
 76
     1
176
     1
 77
     6
176
     1
 78
     2
176
     1
 67
     7
176
     1
 79
     5
176
     1
170
     0
176
     1
171
     0
176
     1
290
     0
176
     1
 93
       13
176
     1
 44
0.0
176
     1
173
     0
176
     1
  0
VISUALSTYLE
  5
2E
102
{ACAD_REACTORS
330
2A
102
}
330
2A
100
AcDbVisualStyle
  2
GouraudWithEdges
 70
     3
177
     2
291
     1
 71
     2
176
     1
 72
     2
176
     1
 73
     1
176
     1
 90
        2
176
     1
 40
-0.6
176
     1
 41
30.0
176
     1
 62
     5
 63
     7
421
 16777215
176
     1
 74
     1
176
     1
 91
        4
176
     1
 64
     7
176
     1
 65
   257
176
     1
 75
     1
176
     1
175
     1
176
     1
 42
1.0
176
     1
 92
        0
176
     1
 66
   257
176
     1
 43
1.0
176
     1
 76
     1
176
     1
 77
     6
176
     1
 78
     2
176
     1
 67
     7
176
     1
 79
     5
176
     1
170
     0
176
     1
171
     0
176
     1
290
     0
176
     1
 93
       13
176
     1
 44
0.0
176
     1
173
     0
176
     1
  0
VISUALSTYLE
  5
38
102
{ACAD_REACTORS
330
2A
102
}
330
2A
100
AcDbVisualStyle
  2
Linepattern
 70
    14
177
     2
291
     1
 71
     2
176
     1
 72
     2
176
     1
 73
     0
176
     1
 90
        0
176
     1
 40
-0.6
176
     1
 41
-30.0
176
     1
 62
     5
 63
     7
421
 16777215
176
     1
 74
     1
176
     1
 91
        4
176
     1
 64
     7
176
     1
 65
   257
176
     1
 75
     7
176
     1
175
     7
176
     1
 42
1.0
176
     1
 92
        8
176
     1
 66
     7
176
     1
 43
1.0
176
     1
 76
     1
176
     1
 77
     6
176
     1
 78
     2
176
     1
 67
     7
176
     1
 79
     5
176
     1
170
     0
176
     1
171
     0
176
     1
290
     0
176
     1
 93
        1
176
     1
 44
0.0
176
     1
173
     0
176
     1
  0
VISUALSTYLE
  5
33
102
{ACAD_REACTORS
330
2A
102
}
330
2A
100
AcDbVisualStyle
  2
Realistic
 70
     8
177
     2
291
     0
 71
     2
176
     1
 72
     2
176
     1
 73
     0
176
     1
 90
        0
176
     1
 40
-0.6
176
     1
 41
-30.0
176
     1
 62
     5
 63
     7
421
 16777215
176
     1
 74
     1
176
     1
 91
        0
176
     1
 64
     7
176
     1
 65
   257
176
     1
 75
     1
176
     1
175
     1
176
     1
 42
1.0
176
     1
 92
        8
176
     1
 66
     8
424
  7895160
176
     1
 43
1.0
176
     1
 76
     1
176
     1
 77
     6
176
     1
 78
     2
176
     1
 67
     7
176
     1
 79
     5
176
     1
170
     0
176
     1
171
     0
176
     1
290
     0
176
     1
 93
       13
176
     1
 44
0.0
176
     1
173
     0
176
     1
  0
VISUALSTYLE
  5
37
102
{ACAD_REACTORS
330
2A
102
}
330
2A
100
AcDbVisualStyle
  2
Thicken
 70
    13
177
     2
291
     1
 71
     2
176
     1
 72
     2
176
     1
 73
     0
176
     1
 90
        0
176
     1
 40
-0.6
176
     1
 41
-30.0
176
     1
 62
     5
 63
     7
421
 16777215
176
     1
 74
     1
176
     1
 91
        4
176
     1
 64
     7
176
     1
 65
   257
176
     1
 75
     1
176
     1
175
     1
176
     1
 42
1.0
176
     1
 92
       12
176
     1
 66
     7
176
     1
 43
1.0
176
     1
 76
     1
176
     1
 77
     6
176
     1
 78
     2
176
     1
 67
     7
176
     1
 79
     5
176
     1
170
     0
176
     1
171
     0
176
     1
290
     0
176
     1
 93
        1
176
     1
 44
0.0
176
     1
173
     0
176
     1
  0
ENDSEC
  0
EOF
